G04 #@! TF.GenerationSoftware,KiCad,Pcbnew,no-vcs-found-5013ea2~58~ubuntu16.04.1*
G04 #@! TF.CreationDate,2017-05-24T10:44:45-06:00*
G04 #@! TF.ProjectId,HiBeam_8-pack_v02,48694265616D5F382D7061636B5F7630,rev?*
G04 #@! TF.FileFunction,Copper,L2,Bot,Signal*
G04 #@! TF.FilePolarity,Positive*
%FSLAX46Y46*%
G04 Gerber Fmt 4.6, Leading zero omitted, Abs format (unit mm)*
G04 Created by KiCad (PCBNEW no-vcs-found-5013ea2~58~ubuntu16.04.1) date Wed May 24 10:44:45 2017*
%MOMM*%
%LPD*%
G01*
G04 APERTURE LIST*
%ADD10C,0.100000*%
%ADD11C,0.203200*%
%ADD12C,2.000000*%
%ADD13C,0.800000*%
%ADD14C,0.812800*%
%ADD15C,0.609600*%
%ADD16C,1.270000*%
%ADD17C,0.254000*%
G04 APERTURE END LIST*
D10*
D11*
X159522885Y-96555076D02*
X160200219Y-96796980D01*
X159522885Y-97038885D01*
X159184219Y-97619457D02*
X159184219Y-97716219D01*
X159232600Y-97812980D01*
X159280980Y-97861361D01*
X159377742Y-97909742D01*
X159571266Y-97958123D01*
X159813171Y-97958123D01*
X160006695Y-97909742D01*
X160103457Y-97861361D01*
X160151838Y-97812980D01*
X160200219Y-97716219D01*
X160200219Y-97619457D01*
X160151838Y-97522695D01*
X160103457Y-97474314D01*
X160006695Y-97425933D01*
X159813171Y-97377552D01*
X159571266Y-97377552D01*
X159377742Y-97425933D01*
X159280980Y-97474314D01*
X159232600Y-97522695D01*
X159184219Y-97619457D01*
X159280980Y-98345171D02*
X159232600Y-98393552D01*
X159184219Y-98490314D01*
X159184219Y-98732219D01*
X159232600Y-98828980D01*
X159280980Y-98877361D01*
X159377742Y-98925742D01*
X159474504Y-98925742D01*
X159619647Y-98877361D01*
X160200219Y-98296790D01*
X160200219Y-98925742D01*
D12*
X142494000Y-109702600D03*
D10*
G36*
X141212287Y-110300272D02*
X141896328Y-108420887D01*
X143775713Y-109104928D01*
X143091672Y-110984313D01*
X141212287Y-110300272D01*
X141212287Y-110300272D01*
G37*
D12*
X145110200Y-110312200D03*
D10*
G36*
X143980759Y-111163295D02*
X144259105Y-109182759D01*
X146239641Y-109461105D01*
X145961295Y-111441641D01*
X143980759Y-111163295D01*
X143980759Y-111163295D01*
G37*
D12*
X136220200Y-104851200D03*
D10*
G36*
X134831970Y-104581355D02*
X136490045Y-103462970D01*
X137608430Y-105121045D01*
X135950355Y-106239430D01*
X134831970Y-104581355D01*
X134831970Y-104581355D01*
G37*
D12*
X134239000Y-99898200D03*
D10*
G36*
X133080544Y-99087040D02*
X135050160Y-98739744D01*
X135397456Y-100709360D01*
X133427840Y-101056656D01*
X133080544Y-99087040D01*
X133080544Y-99087040D01*
G37*
D12*
X137947400Y-106908600D03*
D10*
G36*
X136533402Y-106933281D02*
X137922719Y-105494602D01*
X139361398Y-106883919D01*
X137972081Y-108322598D01*
X136533402Y-106933281D01*
X136533402Y-106933281D01*
G37*
D12*
X140055600Y-108534200D03*
D10*
G36*
X138677633Y-108852329D02*
X139737471Y-107156233D01*
X141433567Y-108216071D01*
X140373729Y-109912167D01*
X138677633Y-108852329D01*
X138677633Y-108852329D01*
G37*
D12*
X134950200Y-102489000D03*
D10*
G36*
X133648410Y-101936423D02*
X135502777Y-101187210D01*
X136251990Y-103041577D01*
X134397623Y-103790790D01*
X133648410Y-101936423D01*
X133648410Y-101936423D01*
G37*
D12*
X134061200Y-97231200D03*
D10*
G36*
X133096709Y-96196910D02*
X135095490Y-96266709D01*
X135025691Y-98265490D01*
X133026910Y-98195691D01*
X133096709Y-96196910D01*
X133096709Y-96196910D01*
G37*
D13*
X137236200Y-95783400D03*
X142062200Y-107365800D03*
X151282400Y-107340400D03*
X157022800Y-100152200D03*
X155016200Y-91135200D03*
X146685000Y-87172800D03*
X138353800Y-91135200D03*
X134264400Y-100101400D03*
X150825200Y-96062800D03*
X138074400Y-99669600D03*
X143408400Y-105841800D03*
X150952200Y-105257600D03*
X155270200Y-99034600D03*
X153085800Y-91922600D03*
X146151600Y-89103200D03*
X139598400Y-92710000D03*
X155422600Y-104267000D03*
X155524200Y-105308400D03*
X137769600Y-106578400D03*
X140639800Y-108559600D03*
D14*
X134950200Y-102489000D02*
X137313737Y-101481021D01*
X136220200Y-104851200D02*
X134950200Y-102489000D01*
X136220200Y-104851200D02*
X138762059Y-103291423D01*
X138762059Y-103291423D02*
X138633200Y-103327200D01*
X138633200Y-103327200D02*
X138633200Y-103130350D01*
D15*
X137236200Y-95783400D02*
X137266446Y-95790263D01*
X137266446Y-95790263D02*
X137266446Y-95790264D01*
D16*
X146685000Y-87122000D02*
X146704745Y-87131422D01*
X146704745Y-87131422D02*
X155030784Y-91104639D01*
X155030784Y-91104639D02*
X155041600Y-91109800D01*
X155041600Y-91109800D02*
X157099000Y-100152200D01*
X157099000Y-100152200D02*
X151338238Y-107384875D01*
X151338238Y-107384875D02*
X151333200Y-107391200D01*
X151333200Y-107391200D02*
X142062339Y-107416600D01*
X142062339Y-107416600D02*
X142062200Y-107416600D01*
X142062200Y-107416600D02*
X138633200Y-103130350D01*
X138633200Y-103130350D02*
X137313737Y-101481021D01*
X137313737Y-101481021D02*
X136288346Y-100199282D01*
X136288346Y-100199282D02*
X136271000Y-100177600D01*
X136271000Y-100177600D02*
X137266446Y-95790264D01*
X137266446Y-95790264D02*
X138324163Y-91128474D01*
X138324163Y-91128474D02*
X138328400Y-91109800D01*
X138328400Y-91109800D02*
X146685000Y-87122000D01*
D15*
X142062200Y-107365800D02*
X142062339Y-107416600D01*
X151282400Y-107340400D02*
X151338238Y-107384875D01*
X157022800Y-100152200D02*
X157095249Y-100135716D01*
X157095249Y-100135716D02*
X157099000Y-100152200D01*
X155016200Y-91135200D02*
X155030784Y-91104639D01*
X146685000Y-87172800D02*
X146704745Y-87131423D01*
X146704745Y-87131423D02*
X146704745Y-87131422D01*
X138353800Y-91135200D02*
X138324163Y-91128476D01*
X138324163Y-91128476D02*
X138324163Y-91128474D01*
D14*
X134264400Y-100101400D02*
X134061200Y-97231200D01*
D15*
X150825200Y-96062800D02*
X154295146Y-95117144D01*
X154295146Y-95117144D02*
X154381200Y-95097600D01*
X154381200Y-95097600D02*
X154381200Y-95496039D01*
D16*
X138074400Y-99669600D02*
X138294062Y-100083165D01*
D15*
X143408400Y-105841800D02*
X143408400Y-105765600D01*
X150952200Y-105257600D02*
X150937260Y-105245622D01*
X155270200Y-99034600D02*
X155189059Y-99053029D01*
X155189059Y-99053029D02*
X155189059Y-99053030D01*
X153085800Y-91922600D02*
X153061950Y-91972107D01*
X146151600Y-89103200D02*
X146685000Y-88900000D01*
X139598400Y-92710000D02*
X139620425Y-92715002D01*
X139620425Y-92715002D02*
X139620425Y-92715003D01*
D16*
X146685000Y-88900000D02*
X153061950Y-91972107D01*
X153061950Y-91972107D02*
X153644600Y-92252800D01*
X153644600Y-92252800D02*
X154381200Y-95496039D01*
X154381200Y-95496039D02*
X155189059Y-99053030D01*
X155189059Y-99053030D02*
X155346400Y-99745800D01*
X155346400Y-99745800D02*
X150937260Y-105245622D01*
X150937260Y-105245622D02*
X150520400Y-105765600D01*
X150520400Y-105765600D02*
X143408400Y-105765600D01*
X143408400Y-105765600D02*
X142849600Y-105765600D01*
X142849600Y-105765600D02*
X138294062Y-100083165D01*
X138294062Y-100083165D02*
X138035996Y-99761262D01*
X138035996Y-99761262D02*
X138023600Y-99745800D01*
X138023600Y-99745800D02*
X139620425Y-92715003D01*
X139620425Y-92715003D02*
X139725400Y-92252800D01*
X139725400Y-92252800D02*
X146685000Y-88900000D01*
D11*
X142494000Y-109702600D02*
X142900400Y-108610400D01*
X142900400Y-108610400D02*
X143281400Y-108458000D01*
X143281400Y-108458000D02*
X151815800Y-108458000D01*
X151815800Y-108458000D02*
X155422600Y-104267000D01*
X155524200Y-105308400D02*
X155524200Y-106451400D01*
X155524200Y-106451400D02*
X152139999Y-109170707D01*
X146786600Y-110515400D02*
X152139999Y-109170707D01*
X152139999Y-109170707D02*
X152146000Y-109169200D01*
X145110200Y-110312200D02*
X146786600Y-110515400D01*
X137769600Y-106578400D02*
X137947400Y-106908600D01*
X140639800Y-108559600D02*
X140055600Y-108534200D01*
D17*
G36*
X149424482Y-84444285D02*
X151964505Y-85230554D01*
X154303433Y-86495208D01*
X156352178Y-88190077D01*
X158032703Y-90250604D01*
X159280998Y-92598304D01*
X160049514Y-95143755D01*
X160113892Y-95800333D01*
X158450280Y-95800333D01*
X158450280Y-99728866D01*
X160106789Y-99728866D01*
X159970416Y-100808373D01*
X159131126Y-103331372D01*
X157817767Y-105643303D01*
X156080364Y-107656104D01*
X153985094Y-109293108D01*
X151611766Y-110491962D01*
X149050779Y-111207002D01*
X146481965Y-111404662D01*
X146525097Y-111097764D01*
X146713246Y-111120570D01*
X146761112Y-111121666D01*
X146808939Y-111124591D01*
X146820515Y-111123026D01*
X146832187Y-111123293D01*
X146879360Y-111115070D01*
X146926840Y-111108650D01*
X146935109Y-111106634D01*
X152288508Y-109761941D01*
X152288511Y-109761940D01*
X152294475Y-109760442D01*
X152299465Y-109758656D01*
X152303758Y-109757900D01*
X152330196Y-109747654D01*
X152406487Y-109720343D01*
X152508577Y-109659251D01*
X152535519Y-109634909D01*
X155906036Y-106926598D01*
X155927403Y-106905687D01*
X155950715Y-106886943D01*
X155969825Y-106864168D01*
X155991064Y-106843382D01*
X156007965Y-106818714D01*
X156027189Y-106795804D01*
X156041509Y-106769756D01*
X156058309Y-106745236D01*
X156070098Y-106717754D01*
X156084505Y-106691547D01*
X156093493Y-106663213D01*
X156105210Y-106635898D01*
X156111436Y-106606650D01*
X156120479Y-106578143D01*
X156123792Y-106548604D01*
X156129981Y-106519532D01*
X156130407Y-106489631D01*
X156133741Y-106459911D01*
X156133800Y-106451400D01*
X156133800Y-105981784D01*
X156214877Y-105904576D01*
X156317521Y-105759069D01*
X156389948Y-105596396D01*
X156429399Y-105422753D01*
X156432239Y-105219366D01*
X156397652Y-105044689D01*
X156329795Y-104880057D01*
X156231254Y-104731741D01*
X156216342Y-104716724D01*
X156288348Y-104554996D01*
X156327799Y-104381353D01*
X156330639Y-104177966D01*
X156296052Y-104003289D01*
X156228195Y-103838657D01*
X156129654Y-103690341D01*
X156004181Y-103563989D01*
X155899195Y-103493175D01*
X157993061Y-100864312D01*
X158024294Y-100816102D01*
X158059964Y-100771068D01*
X158084794Y-100722716D01*
X158114351Y-100677093D01*
X158135627Y-100623729D01*
X158161868Y-100572629D01*
X158176836Y-100520369D01*
X158196965Y-100469880D01*
X158207469Y-100413409D01*
X158223288Y-100358177D01*
X158227820Y-100304007D01*
X158237760Y-100250567D01*
X158237095Y-100193126D01*
X158241884Y-100135879D01*
X158235807Y-100081857D01*
X158235178Y-100027507D01*
X158223370Y-99971295D01*
X158216948Y-99914203D01*
X158213515Y-99898617D01*
X156156115Y-90856216D01*
X156136966Y-90798712D01*
X156123032Y-90739728D01*
X156101810Y-90693143D01*
X156085635Y-90644569D01*
X156055679Y-90591875D01*
X156030555Y-90536724D01*
X156000689Y-90495148D01*
X155975388Y-90450642D01*
X155935774Y-90404778D01*
X155900411Y-90355549D01*
X155863031Y-90320559D01*
X155829572Y-90281821D01*
X155781806Y-90244527D01*
X155737553Y-90203103D01*
X155694088Y-90176039D01*
X155653743Y-90144539D01*
X155599645Y-90117234D01*
X155548187Y-90085193D01*
X155533832Y-90078220D01*
X155523016Y-90073059D01*
X147197011Y-86099859D01*
X147196995Y-86099851D01*
X147177249Y-86090429D01*
X147126367Y-86072000D01*
X147077603Y-86048543D01*
X147021754Y-86034111D01*
X146967508Y-86014463D01*
X146914014Y-86006268D01*
X146861623Y-85992729D01*
X146804030Y-85989419D01*
X146747006Y-85980683D01*
X146692943Y-85983034D01*
X146638917Y-85979929D01*
X146581780Y-85987868D01*
X146524142Y-85990375D01*
X146471561Y-86003184D01*
X146417965Y-86010631D01*
X146363454Y-86029519D01*
X146307405Y-86043172D01*
X146258321Y-86065946D01*
X146207185Y-86083664D01*
X146192734Y-86090437D01*
X137836134Y-90078236D01*
X137783961Y-90109722D01*
X137729205Y-90136448D01*
X137688699Y-90167212D01*
X137645144Y-90193497D01*
X137600085Y-90234514D01*
X137551558Y-90271369D01*
X137517792Y-90309423D01*
X137480180Y-90343660D01*
X137443949Y-90392642D01*
X137403501Y-90438226D01*
X137377772Y-90482109D01*
X137347522Y-90523005D01*
X137321492Y-90578098D01*
X137290673Y-90630663D01*
X137273956Y-90678711D01*
X137252228Y-90724700D01*
X137237398Y-90783789D01*
X137217371Y-90841350D01*
X137213732Y-90856889D01*
X137209511Y-90875492D01*
X137209494Y-90875566D01*
X136151777Y-95537356D01*
X135684415Y-97597212D01*
X135685231Y-97573837D01*
X135532118Y-97409643D01*
X134183690Y-97362555D01*
X134148727Y-98363763D01*
X134107722Y-98422324D01*
X134140242Y-98606753D01*
X134136602Y-98710983D01*
X134163755Y-98740101D01*
X134342017Y-99751076D01*
X134361713Y-99747603D01*
X134405820Y-99997744D01*
X134386124Y-100001217D01*
X134389597Y-100020913D01*
X134139456Y-100065020D01*
X134135983Y-100045324D01*
X134116287Y-100048797D01*
X134072180Y-99798656D01*
X134091876Y-99795183D01*
X133885465Y-98624569D01*
X133929845Y-97353690D01*
X133909857Y-97352992D01*
X133918388Y-97108710D01*
X134192555Y-97108710D01*
X135540983Y-97155798D01*
X135705177Y-97002685D01*
X135732286Y-96226366D01*
X135712180Y-96102908D01*
X135668375Y-95985746D01*
X135602554Y-95879380D01*
X135517246Y-95787899D01*
X135415731Y-95714819D01*
X135301910Y-95662948D01*
X135180155Y-95634278D01*
X135055148Y-95629913D01*
X134403837Y-95607169D01*
X134239643Y-95760282D01*
X134192555Y-97108710D01*
X133918388Y-97108710D01*
X133918722Y-97099147D01*
X133938710Y-97099845D01*
X133985798Y-95751417D01*
X133832685Y-95587223D01*
X133290216Y-95568280D01*
X133358736Y-94957415D01*
X134162718Y-92422943D01*
X135443669Y-90092900D01*
X137152800Y-88056038D01*
X139225009Y-86389939D01*
X141581367Y-85158065D01*
X144132121Y-84407337D01*
X146780113Y-84166351D01*
X149424482Y-84444285D01*
X149424482Y-84444285D01*
G37*
X149424482Y-84444285D02*
X151964505Y-85230554D01*
X154303433Y-86495208D01*
X156352178Y-88190077D01*
X158032703Y-90250604D01*
X159280998Y-92598304D01*
X160049514Y-95143755D01*
X160113892Y-95800333D01*
X158450280Y-95800333D01*
X158450280Y-99728866D01*
X160106789Y-99728866D01*
X159970416Y-100808373D01*
X159131126Y-103331372D01*
X157817767Y-105643303D01*
X156080364Y-107656104D01*
X153985094Y-109293108D01*
X151611766Y-110491962D01*
X149050779Y-111207002D01*
X146481965Y-111404662D01*
X146525097Y-111097764D01*
X146713246Y-111120570D01*
X146761112Y-111121666D01*
X146808939Y-111124591D01*
X146820515Y-111123026D01*
X146832187Y-111123293D01*
X146879360Y-111115070D01*
X146926840Y-111108650D01*
X146935109Y-111106634D01*
X152288508Y-109761941D01*
X152288511Y-109761940D01*
X152294475Y-109760442D01*
X152299465Y-109758656D01*
X152303758Y-109757900D01*
X152330196Y-109747654D01*
X152406487Y-109720343D01*
X152508577Y-109659251D01*
X152535519Y-109634909D01*
X155906036Y-106926598D01*
X155927403Y-106905687D01*
X155950715Y-106886943D01*
X155969825Y-106864168D01*
X155991064Y-106843382D01*
X156007965Y-106818714D01*
X156027189Y-106795804D01*
X156041509Y-106769756D01*
X156058309Y-106745236D01*
X156070098Y-106717754D01*
X156084505Y-106691547D01*
X156093493Y-106663213D01*
X156105210Y-106635898D01*
X156111436Y-106606650D01*
X156120479Y-106578143D01*
X156123792Y-106548604D01*
X156129981Y-106519532D01*
X156130407Y-106489631D01*
X156133741Y-106459911D01*
X156133800Y-106451400D01*
X156133800Y-105981784D01*
X156214877Y-105904576D01*
X156317521Y-105759069D01*
X156389948Y-105596396D01*
X156429399Y-105422753D01*
X156432239Y-105219366D01*
X156397652Y-105044689D01*
X156329795Y-104880057D01*
X156231254Y-104731741D01*
X156216342Y-104716724D01*
X156288348Y-104554996D01*
X156327799Y-104381353D01*
X156330639Y-104177966D01*
X156296052Y-104003289D01*
X156228195Y-103838657D01*
X156129654Y-103690341D01*
X156004181Y-103563989D01*
X155899195Y-103493175D01*
X157993061Y-100864312D01*
X158024294Y-100816102D01*
X158059964Y-100771068D01*
X158084794Y-100722716D01*
X158114351Y-100677093D01*
X158135627Y-100623729D01*
X158161868Y-100572629D01*
X158176836Y-100520369D01*
X158196965Y-100469880D01*
X158207469Y-100413409D01*
X158223288Y-100358177D01*
X158227820Y-100304007D01*
X158237760Y-100250567D01*
X158237095Y-100193126D01*
X158241884Y-100135879D01*
X158235807Y-100081857D01*
X158235178Y-100027507D01*
X158223370Y-99971295D01*
X158216948Y-99914203D01*
X158213515Y-99898617D01*
X156156115Y-90856216D01*
X156136966Y-90798712D01*
X156123032Y-90739728D01*
X156101810Y-90693143D01*
X156085635Y-90644569D01*
X156055679Y-90591875D01*
X156030555Y-90536724D01*
X156000689Y-90495148D01*
X155975388Y-90450642D01*
X155935774Y-90404778D01*
X155900411Y-90355549D01*
X155863031Y-90320559D01*
X155829572Y-90281821D01*
X155781806Y-90244527D01*
X155737553Y-90203103D01*
X155694088Y-90176039D01*
X155653743Y-90144539D01*
X155599645Y-90117234D01*
X155548187Y-90085193D01*
X155533832Y-90078220D01*
X155523016Y-90073059D01*
X147197011Y-86099859D01*
X147196995Y-86099851D01*
X147177249Y-86090429D01*
X147126367Y-86072000D01*
X147077603Y-86048543D01*
X147021754Y-86034111D01*
X146967508Y-86014463D01*
X146914014Y-86006268D01*
X146861623Y-85992729D01*
X146804030Y-85989419D01*
X146747006Y-85980683D01*
X146692943Y-85983034D01*
X146638917Y-85979929D01*
X146581780Y-85987868D01*
X146524142Y-85990375D01*
X146471561Y-86003184D01*
X146417965Y-86010631D01*
X146363454Y-86029519D01*
X146307405Y-86043172D01*
X146258321Y-86065946D01*
X146207185Y-86083664D01*
X146192734Y-86090437D01*
X137836134Y-90078236D01*
X137783961Y-90109722D01*
X137729205Y-90136448D01*
X137688699Y-90167212D01*
X137645144Y-90193497D01*
X137600085Y-90234514D01*
X137551558Y-90271369D01*
X137517792Y-90309423D01*
X137480180Y-90343660D01*
X137443949Y-90392642D01*
X137403501Y-90438226D01*
X137377772Y-90482109D01*
X137347522Y-90523005D01*
X137321492Y-90578098D01*
X137290673Y-90630663D01*
X137273956Y-90678711D01*
X137252228Y-90724700D01*
X137237398Y-90783789D01*
X137217371Y-90841350D01*
X137213732Y-90856889D01*
X137209511Y-90875492D01*
X137209494Y-90875566D01*
X136151777Y-95537356D01*
X135684415Y-97597212D01*
X135685231Y-97573837D01*
X135532118Y-97409643D01*
X134183690Y-97362555D01*
X134148727Y-98363763D01*
X134107722Y-98422324D01*
X134140242Y-98606753D01*
X134136602Y-98710983D01*
X134163755Y-98740101D01*
X134342017Y-99751076D01*
X134361713Y-99747603D01*
X134405820Y-99997744D01*
X134386124Y-100001217D01*
X134389597Y-100020913D01*
X134139456Y-100065020D01*
X134135983Y-100045324D01*
X134116287Y-100048797D01*
X134072180Y-99798656D01*
X134091876Y-99795183D01*
X133885465Y-98624569D01*
X133929845Y-97353690D01*
X133909857Y-97352992D01*
X133918388Y-97108710D01*
X134192555Y-97108710D01*
X135540983Y-97155798D01*
X135705177Y-97002685D01*
X135732286Y-96226366D01*
X135712180Y-96102908D01*
X135668375Y-95985746D01*
X135602554Y-95879380D01*
X135517246Y-95787899D01*
X135415731Y-95714819D01*
X135301910Y-95662948D01*
X135180155Y-95634278D01*
X135055148Y-95629913D01*
X134403837Y-95607169D01*
X134239643Y-95760282D01*
X134192555Y-97108710D01*
X133918388Y-97108710D01*
X133918722Y-97099147D01*
X133938710Y-97099845D01*
X133985798Y-95751417D01*
X133832685Y-95587223D01*
X133290216Y-95568280D01*
X133358736Y-94957415D01*
X134162718Y-92422943D01*
X135443669Y-90092900D01*
X137152800Y-88056038D01*
X139225009Y-86389939D01*
X141581367Y-85158065D01*
X144132121Y-84407337D01*
X146780113Y-84166351D01*
X149424482Y-84444285D01*
G36*
X154049866Y-91903016D02*
X155862565Y-99869940D01*
X150781137Y-106249708D01*
X142610350Y-106272094D01*
X140224288Y-103289517D01*
X144713912Y-103289517D01*
X144783600Y-103669218D01*
X144925712Y-104028151D01*
X145134835Y-104352646D01*
X145403003Y-104630342D01*
X145720001Y-104850662D01*
X146073757Y-105005214D01*
X146450794Y-105088111D01*
X146836752Y-105096195D01*
X147216930Y-105029160D01*
X147576847Y-104889557D01*
X147902794Y-104682705D01*
X148182355Y-104416482D01*
X148404883Y-104101029D01*
X148561900Y-103748362D01*
X148647428Y-103371912D01*
X148653585Y-102930979D01*
X148578602Y-102552288D01*
X148431492Y-102195374D01*
X148217860Y-101873830D01*
X147945841Y-101599906D01*
X147625797Y-101384033D01*
X147269918Y-101234436D01*
X146891760Y-101156811D01*
X146505726Y-101154116D01*
X146126522Y-101226453D01*
X145768589Y-101371067D01*
X145445562Y-101582450D01*
X145169745Y-101852550D01*
X144951643Y-102171079D01*
X144799565Y-102525905D01*
X144719302Y-102903512D01*
X144713912Y-103289517D01*
X140224288Y-103289517D01*
X139525733Y-102416324D01*
X138206270Y-100766995D01*
X137507503Y-99893536D01*
X138381115Y-96043172D01*
X139320520Y-91902832D01*
X146685001Y-88388474D01*
X154049866Y-91903016D01*
X154049866Y-91903016D01*
G37*
X154049866Y-91903016D02*
X155862565Y-99869940D01*
X150781137Y-106249708D01*
X142610350Y-106272094D01*
X140224288Y-103289517D01*
X144713912Y-103289517D01*
X144783600Y-103669218D01*
X144925712Y-104028151D01*
X145134835Y-104352646D01*
X145403003Y-104630342D01*
X145720001Y-104850662D01*
X146073757Y-105005214D01*
X146450794Y-105088111D01*
X146836752Y-105096195D01*
X147216930Y-105029160D01*
X147576847Y-104889557D01*
X147902794Y-104682705D01*
X148182355Y-104416482D01*
X148404883Y-104101029D01*
X148561900Y-103748362D01*
X148647428Y-103371912D01*
X148653585Y-102930979D01*
X148578602Y-102552288D01*
X148431492Y-102195374D01*
X148217860Y-101873830D01*
X147945841Y-101599906D01*
X147625797Y-101384033D01*
X147269918Y-101234436D01*
X146891760Y-101156811D01*
X146505726Y-101154116D01*
X146126522Y-101226453D01*
X145768589Y-101371067D01*
X145445562Y-101582450D01*
X145169745Y-101852550D01*
X144951643Y-102171079D01*
X144799565Y-102525905D01*
X144719302Y-102903512D01*
X144713912Y-103289517D01*
X140224288Y-103289517D01*
X139525733Y-102416324D01*
X138206270Y-100766995D01*
X137507503Y-99893536D01*
X138381115Y-96043172D01*
X139320520Y-91902832D01*
X146685001Y-88388474D01*
X154049866Y-91903016D01*
M02*
