G04 #@! TF.GenerationSoftware,KiCad,Pcbnew,no-vcs-found-5013ea2~58~ubuntu16.04.1*
G04 #@! TF.CreationDate,2017-05-17T13:22:10-06:00*
G04 #@! TF.ProjectId,HiBeam_8-pack_v02,48694265616D5F382D7061636B5F7630,rev?*
G04 #@! TF.FileFunction,Paste,Bot*
G04 #@! TF.FilePolarity,Positive*
%FSLAX46Y46*%
G04 Gerber Fmt 4.6, Leading zero omitted, Abs format (unit mm)*
G04 Created by KiCad (PCBNEW no-vcs-found-5013ea2~58~ubuntu16.04.1) date Wed May 17 13:22:10 2017*
%MOMM*%
%LPD*%
G01*
G04 APERTURE LIST*
%ADD10C,0.100000*%
%ADD11C,2.000000*%
G04 APERTURE END LIST*
D10*
D11*
X142494000Y-109702600D03*
D10*
G36*
X141212287Y-110300272D02*
X141896328Y-108420887D01*
X143775713Y-109104928D01*
X143091672Y-110984313D01*
X141212287Y-110300272D01*
X141212287Y-110300272D01*
G37*
D11*
X145110200Y-110312200D03*
D10*
G36*
X143980759Y-111163295D02*
X144259105Y-109182759D01*
X146239641Y-109461105D01*
X145961295Y-111441641D01*
X143980759Y-111163295D01*
X143980759Y-111163295D01*
G37*
D11*
X136220200Y-104851200D03*
D10*
G36*
X134831970Y-104581355D02*
X136490045Y-103462970D01*
X137608430Y-105121045D01*
X135950355Y-106239430D01*
X134831970Y-104581355D01*
X134831970Y-104581355D01*
G37*
D11*
X134239000Y-99898200D03*
D10*
G36*
X133080544Y-99087040D02*
X135050160Y-98739744D01*
X135397456Y-100709360D01*
X133427840Y-101056656D01*
X133080544Y-99087040D01*
X133080544Y-99087040D01*
G37*
D11*
X137947400Y-106908600D03*
D10*
G36*
X136533402Y-106933281D02*
X137922719Y-105494602D01*
X139361398Y-106883919D01*
X137972081Y-108322598D01*
X136533402Y-106933281D01*
X136533402Y-106933281D01*
G37*
D11*
X140055600Y-108534200D03*
D10*
G36*
X138677633Y-108852329D02*
X139737471Y-107156233D01*
X141433567Y-108216071D01*
X140373729Y-109912167D01*
X138677633Y-108852329D01*
X138677633Y-108852329D01*
G37*
D11*
X134950200Y-102489000D03*
D10*
G36*
X133648410Y-101936423D02*
X135502777Y-101187210D01*
X136251990Y-103041577D01*
X134397623Y-103790790D01*
X133648410Y-101936423D01*
X133648410Y-101936423D01*
G37*
D11*
X134061200Y-97231200D03*
D10*
G36*
X133096709Y-96196910D02*
X135095490Y-96266709D01*
X135025691Y-98265490D01*
X133026910Y-98195691D01*
X133096709Y-96196910D01*
X133096709Y-96196910D01*
G37*
M02*
