G04 #@! TF.GenerationSoftware,KiCad,Pcbnew,no-vcs-found-5013ea2~58~ubuntu16.04.1*
G04 #@! TF.CreationDate,2017-05-17T13:22:10-06:00*
G04 #@! TF.ProjectId,HiBeam_8-pack_v02,48694265616D5F382D7061636B5F7630,rev?*
G04 #@! TF.FileFunction,Paste,Top*
G04 #@! TF.FilePolarity,Positive*
%FSLAX46Y46*%
G04 Gerber Fmt 4.6, Leading zero omitted, Abs format (unit mm)*
G04 Created by KiCad (PCBNEW no-vcs-found-5013ea2~58~ubuntu16.04.1) date Wed May 17 13:22:10 2017*
%MOMM*%
%LPD*%
G01*
G04 APERTURE LIST*
%ADD10C,0.100000*%
%ADD11C,1.100000*%
%ADD12R,2.000000X1.100000*%
%ADD13R,1.099820X0.998220*%
%ADD14C,0.998220*%
%ADD15C,0.635000*%
G04 APERTURE END LIST*
D10*
D11*
X139187795Y-107856849D03*
D10*
G36*
X140327385Y-107794916D02*
X139850360Y-108786100D01*
X138048205Y-107918782D01*
X138525230Y-106927598D01*
X140327385Y-107794916D01*
X140327385Y-107794916D01*
G37*
D11*
X139925015Y-106325018D03*
D10*
G36*
X141064605Y-106263085D02*
X140587580Y-107254269D01*
X138785425Y-106386951D01*
X139262450Y-105395767D01*
X141064605Y-106263085D01*
X141064605Y-106263085D01*
G37*
D11*
X140662236Y-104793187D03*
D10*
G36*
X141801826Y-104731254D02*
X141324801Y-105722438D01*
X139522646Y-104855120D01*
X139999671Y-103863936D01*
X141801826Y-104731254D01*
X141801826Y-104731254D01*
G37*
D11*
X144987405Y-106874751D03*
D10*
G36*
X143847815Y-106936684D02*
X144324840Y-105945500D01*
X146126995Y-106812818D01*
X145649970Y-107804002D01*
X143847815Y-106936684D01*
X143847815Y-106936684D01*
G37*
D11*
X144250185Y-108406582D03*
D10*
G36*
X143110595Y-108468515D02*
X143587620Y-107477331D01*
X145389775Y-108344649D01*
X144912750Y-109335833D01*
X143110595Y-108468515D01*
X143110595Y-108468515D01*
G37*
D11*
X143512964Y-109938413D03*
D10*
G36*
X142373374Y-110000346D02*
X142850399Y-109009162D01*
X144652554Y-109876480D01*
X144175529Y-110867664D01*
X142373374Y-110000346D01*
X142373374Y-110000346D01*
G37*
D11*
X149857036Y-109913013D03*
D10*
G36*
X150519601Y-108983762D02*
X150996626Y-109974946D01*
X149194471Y-110842264D01*
X148717446Y-109851080D01*
X150519601Y-108983762D01*
X150519601Y-108983762D01*
G37*
D11*
X149119815Y-108381182D03*
D10*
G36*
X149782380Y-107451931D02*
X150259405Y-108443115D01*
X148457250Y-109310433D01*
X147980225Y-108319249D01*
X149782380Y-107451931D01*
X149782380Y-107451931D01*
G37*
D11*
X148382595Y-106849351D03*
D10*
G36*
X149045160Y-105920100D02*
X149522185Y-106911284D01*
X147720030Y-107778602D01*
X147243005Y-106787418D01*
X149045160Y-105920100D01*
X149045160Y-105920100D01*
G37*
D11*
X152707764Y-104767787D03*
D10*
G36*
X152045199Y-105697038D02*
X151568174Y-104705854D01*
X153370329Y-103838536D01*
X153847354Y-104829720D01*
X152045199Y-105697038D01*
X152045199Y-105697038D01*
G37*
D11*
X153444985Y-106299618D03*
D10*
G36*
X152782420Y-107228869D02*
X152305395Y-106237685D01*
X154107550Y-105370367D01*
X154584575Y-106361551D01*
X152782420Y-107228869D01*
X152782420Y-107228869D01*
G37*
D11*
X154182205Y-107831449D03*
D10*
G36*
X153519640Y-108760700D02*
X153042615Y-107769516D01*
X154844770Y-106902198D01*
X155321795Y-107893382D01*
X153519640Y-108760700D01*
X153519640Y-108760700D01*
G37*
D11*
X158148838Y-102869191D03*
D10*
G36*
X157834054Y-101772190D02*
X158906719Y-102015893D01*
X158463622Y-103966192D01*
X157390957Y-103722489D01*
X157834054Y-101772190D01*
X157834054Y-101772190D01*
G37*
D11*
X156491084Y-102492557D03*
D10*
G36*
X156176300Y-101395556D02*
X157248965Y-101639259D01*
X156805868Y-103589558D01*
X155733203Y-103345855D01*
X156176300Y-101395556D01*
X156176300Y-101395556D01*
G37*
D11*
X154833330Y-102115926D03*
D10*
G36*
X154518546Y-101018925D02*
X155591211Y-101262628D01*
X155148114Y-103212927D01*
X154075449Y-102969224D01*
X154518546Y-101018925D01*
X154518546Y-101018925D01*
G37*
D11*
X155896762Y-97435209D03*
D10*
G36*
X156211546Y-98532210D02*
X155138881Y-98288507D01*
X155581978Y-96338208D01*
X156654643Y-96581911D01*
X156211546Y-98532210D01*
X156211546Y-98532210D01*
G37*
D11*
X157554516Y-97811843D03*
D10*
G36*
X157869300Y-98908844D02*
X156796635Y-98665141D01*
X157239732Y-96714842D01*
X158312397Y-96958545D01*
X157869300Y-98908844D01*
X157869300Y-98908844D01*
G37*
D11*
X159212270Y-98188474D03*
D10*
G36*
X159527054Y-99285475D02*
X158454389Y-99041772D01*
X158897486Y-97091473D01*
X159970151Y-97335176D01*
X159527054Y-99285475D01*
X159527054Y-99285475D01*
G37*
D11*
X157789869Y-91980585D03*
D10*
G36*
X156736920Y-91540360D02*
X157597789Y-90855594D01*
X158842818Y-92420810D01*
X157981949Y-93105576D01*
X156736920Y-91540360D01*
X156736920Y-91540360D01*
G37*
D11*
X156459435Y-93038860D03*
D10*
G36*
X155406486Y-92598635D02*
X156267355Y-91913869D01*
X157512384Y-93479085D01*
X156651515Y-94163851D01*
X155406486Y-92598635D01*
X155406486Y-92598635D01*
G37*
D11*
X155129001Y-94097134D03*
D10*
G36*
X154076052Y-93656909D02*
X154936921Y-92972143D01*
X156181950Y-94537359D01*
X155321081Y-95222125D01*
X154076052Y-93656909D01*
X154076052Y-93656909D01*
G37*
D11*
X152140931Y-90340615D03*
D10*
G36*
X153193880Y-90780840D02*
X152333011Y-91465606D01*
X151087982Y-89900390D01*
X151948851Y-89215624D01*
X153193880Y-90780840D01*
X153193880Y-90780840D01*
G37*
D11*
X153471365Y-89282340D03*
D10*
G36*
X154524314Y-89722565D02*
X153663445Y-90407331D01*
X152418416Y-88842115D01*
X153279285Y-88157349D01*
X154524314Y-89722565D01*
X154524314Y-89722565D01*
G37*
D11*
X154801799Y-88224066D03*
D10*
G36*
X155854748Y-88664291D02*
X154993879Y-89349057D01*
X153748850Y-87783841D01*
X154609719Y-87099075D01*
X155854748Y-88664291D01*
X155854748Y-88664291D01*
G37*
D12*
X149085000Y-85472800D03*
X149085000Y-87172800D03*
X149085000Y-88872800D03*
X144285000Y-88872800D03*
X144285000Y-87172800D03*
X144285000Y-85472800D03*
D11*
X138542801Y-88224066D03*
D10*
G36*
X138350721Y-89349057D02*
X137489852Y-88664291D01*
X138734881Y-87099075D01*
X139595750Y-87783841D01*
X138350721Y-89349057D01*
X138350721Y-89349057D01*
G37*
D11*
X139873235Y-89282340D03*
D10*
G36*
X139681155Y-90407331D02*
X138820286Y-89722565D01*
X140065315Y-88157349D01*
X140926184Y-88842115D01*
X139681155Y-90407331D01*
X139681155Y-90407331D01*
G37*
D11*
X141203669Y-90340615D03*
D10*
G36*
X141011589Y-91465606D02*
X140150720Y-90780840D01*
X141395749Y-89215624D01*
X142256618Y-89900390D01*
X141011589Y-91465606D01*
X141011589Y-91465606D01*
G37*
D11*
X138215599Y-94097134D03*
D10*
G36*
X138407679Y-92972143D02*
X139268548Y-93656909D01*
X138023519Y-95222125D01*
X137162650Y-94537359D01*
X138407679Y-92972143D01*
X138407679Y-92972143D01*
G37*
D11*
X136885165Y-93038860D03*
D10*
G36*
X137077245Y-91913869D02*
X137938114Y-92598635D01*
X136693085Y-94163851D01*
X135832216Y-93479085D01*
X137077245Y-91913869D01*
X137077245Y-91913869D01*
G37*
D11*
X135554731Y-91980585D03*
D10*
G36*
X135746811Y-90855594D02*
X136607680Y-91540360D01*
X135362651Y-93105576D01*
X134501782Y-92420810D01*
X135746811Y-90855594D01*
X135746811Y-90855594D01*
G37*
D11*
X134132330Y-98188474D03*
D10*
G36*
X134890211Y-99041772D02*
X133817546Y-99285475D01*
X133374449Y-97335176D01*
X134447114Y-97091473D01*
X134890211Y-99041772D01*
X134890211Y-99041772D01*
G37*
D11*
X135790084Y-97811843D03*
D10*
G36*
X136547965Y-98665141D02*
X135475300Y-98908844D01*
X135032203Y-96958545D01*
X136104868Y-96714842D01*
X136547965Y-98665141D01*
X136547965Y-98665141D01*
G37*
D11*
X137447838Y-97435209D03*
D10*
G36*
X138205719Y-98288507D02*
X137133054Y-98532210D01*
X136689957Y-96581911D01*
X137762622Y-96338208D01*
X138205719Y-98288507D01*
X138205719Y-98288507D01*
G37*
D11*
X138511270Y-102115926D03*
D10*
G36*
X137753389Y-101262628D02*
X138826054Y-101018925D01*
X139269151Y-102969224D01*
X138196486Y-103212927D01*
X137753389Y-101262628D01*
X137753389Y-101262628D01*
G37*
D11*
X136853516Y-102492557D03*
D10*
G36*
X136095635Y-101639259D02*
X137168300Y-101395556D01*
X137611397Y-103345855D01*
X136538732Y-103589558D01*
X136095635Y-101639259D01*
X136095635Y-101639259D01*
G37*
D11*
X135195762Y-102869191D03*
D10*
G36*
X134437881Y-102015893D02*
X135510546Y-101772190D01*
X135953643Y-103722489D01*
X134880978Y-103966192D01*
X134437881Y-102015893D01*
X134437881Y-102015893D01*
G37*
D12*
X144285000Y-99490000D03*
X144285000Y-97790000D03*
X144285000Y-96090000D03*
X149085000Y-96090000D03*
X149085000Y-97790000D03*
X149085000Y-99490000D03*
D13*
X147533360Y-94234000D03*
X145836640Y-94234000D03*
D14*
X140014953Y-100166678D03*
D10*
G36*
X139406414Y-99741011D02*
X140379828Y-99519857D01*
X140623492Y-100592345D01*
X139650078Y-100813499D01*
X139406414Y-99741011D01*
X139406414Y-99741011D01*
G37*
D14*
X139639047Y-98512122D03*
D10*
G36*
X139030508Y-98086455D02*
X140003922Y-97865301D01*
X140247586Y-98937789D01*
X139274172Y-99158943D01*
X139030508Y-98086455D01*
X139030508Y-98086455D01*
G37*
D14*
X140670483Y-94085133D03*
D10*
G36*
X140622202Y-93344066D02*
X141403418Y-93965472D01*
X140718764Y-94826200D01*
X139937548Y-94204794D01*
X140622202Y-93344066D01*
X140622202Y-93344066D01*
G37*
D14*
X141726717Y-92757267D03*
D10*
G36*
X141678436Y-92016200D02*
X142459652Y-92637606D01*
X141774998Y-93498334D01*
X140993782Y-92876928D01*
X141678436Y-92016200D01*
X141678436Y-92016200D01*
G37*
D13*
X145836640Y-90779600D03*
X147533360Y-90779600D03*
D14*
X151643283Y-92757267D03*
D10*
G36*
X152376218Y-92876928D02*
X151595002Y-93498334D01*
X150910348Y-92637606D01*
X151691564Y-92016200D01*
X152376218Y-92876928D01*
X152376218Y-92876928D01*
G37*
D14*
X152699517Y-94085133D03*
D10*
G36*
X153432452Y-94204794D02*
X152651236Y-94826200D01*
X151966582Y-93965472D01*
X152747798Y-93344066D01*
X153432452Y-94204794D01*
X153432452Y-94204794D01*
G37*
D14*
X153705553Y-98512122D03*
D10*
G36*
X154070428Y-99158943D02*
X153097014Y-98937789D01*
X153340678Y-97865301D01*
X154314092Y-98086455D01*
X154070428Y-99158943D01*
X154070428Y-99158943D01*
G37*
D14*
X153329647Y-100166678D03*
D10*
G36*
X153694522Y-100813499D02*
X152721108Y-100592345D01*
X152964772Y-99519857D01*
X153938186Y-99741011D01*
X153694522Y-100813499D01*
X153694522Y-100813499D01*
G37*
D14*
X151243899Y-103380438D03*
D10*
G36*
X150555689Y-103101370D02*
X151455162Y-102668483D01*
X151932109Y-103659506D01*
X151032636Y-104092393D01*
X150555689Y-103101370D01*
X150555689Y-103101370D01*
G37*
D14*
X150508101Y-101851562D03*
D10*
G36*
X149819891Y-101572494D02*
X150719364Y-101139607D01*
X151196311Y-102130630D01*
X150296838Y-102563517D01*
X149819891Y-101572494D01*
X149819891Y-101572494D01*
G37*
D14*
X142861899Y-101851562D03*
D10*
G36*
X143073162Y-102563517D02*
X142173689Y-102130630D01*
X142650636Y-101139607D01*
X143550109Y-101572494D01*
X143073162Y-102563517D01*
X143073162Y-102563517D01*
G37*
D14*
X142126101Y-103380438D03*
D10*
G36*
X142337364Y-104092393D02*
X141437891Y-103659506D01*
X141914838Y-102668483D01*
X142814311Y-103101370D01*
X142337364Y-104092393D01*
X142337364Y-104092393D01*
G37*
D15*
X133553200Y-94894400D03*
X159766000Y-94615000D03*
M02*
