G04 #@! TF.GenerationSoftware,KiCad,Pcbnew,no-vcs-found-5013ea2~58~ubuntu16.04.1*
G04 #@! TF.CreationDate,2017-05-17T13:22:10-06:00*
G04 #@! TF.ProjectId,HiBeam_8-pack_v02,48694265616D5F382D7061636B5F7630,rev?*
G04 #@! TF.FileFunction,Soldermask,Bot*
G04 #@! TF.FilePolarity,Negative*
%FSLAX46Y46*%
G04 Gerber Fmt 4.6, Leading zero omitted, Abs format (unit mm)*
G04 Created by KiCad (PCBNEW no-vcs-found-5013ea2~58~ubuntu16.04.1) date Wed May 17 13:22:10 2017*
%MOMM*%
%LPD*%
G01*
G04 APERTURE LIST*
%ADD10C,0.100000*%
%ADD11C,2.400000*%
%ADD12C,3.321000*%
G04 APERTURE END LIST*
D10*
D11*
X142494000Y-109702600D03*
D10*
G36*
X140955945Y-110419807D02*
X141776793Y-108164545D01*
X144032055Y-108985393D01*
X143211207Y-111240655D01*
X140955945Y-110419807D01*
X140955945Y-110419807D01*
G37*
D11*
X145110200Y-110312200D03*
D10*
G36*
X143754871Y-111333514D02*
X144088886Y-108956871D01*
X146465529Y-109290886D01*
X146131514Y-111667529D01*
X143754871Y-111333514D01*
X143754871Y-111333514D01*
G37*
D11*
X136220200Y-104851200D03*
D10*
G36*
X134554323Y-104527386D02*
X136544014Y-103185323D01*
X137886077Y-105175014D01*
X135896386Y-106517077D01*
X134554323Y-104527386D01*
X134554323Y-104527386D01*
G37*
D11*
X134239000Y-99898200D03*
D10*
G36*
X132848853Y-98924809D02*
X135212391Y-98508053D01*
X135629147Y-100871591D01*
X133265609Y-101288347D01*
X132848853Y-98924809D01*
X132848853Y-98924809D01*
G37*
D11*
X137947400Y-106908600D03*
D10*
G36*
X136250602Y-106938218D02*
X137917782Y-105211802D01*
X139644198Y-106878982D01*
X137977018Y-108605398D01*
X136250602Y-106938218D01*
X136250602Y-106938218D01*
G37*
D11*
X140055600Y-108534200D03*
D10*
G36*
X138402039Y-108915955D02*
X139673845Y-106880639D01*
X141709161Y-108152445D01*
X140437355Y-110187761D01*
X138402039Y-108915955D01*
X138402039Y-108915955D01*
G37*
D12*
X146685000Y-103124000D03*
D11*
X134950200Y-102489000D03*
D10*
G36*
X133388051Y-101825907D02*
X135613293Y-100926851D01*
X136512349Y-103152093D01*
X134287107Y-104051149D01*
X133388051Y-101825907D01*
X133388051Y-101825907D01*
G37*
D11*
X134061200Y-97231200D03*
D10*
G36*
X132903810Y-95990052D02*
X135302348Y-96073810D01*
X135218590Y-98472348D01*
X132820052Y-98388590D01*
X132903810Y-95990052D01*
X132903810Y-95990052D01*
G37*
M02*
