G04 #@! TF.GenerationSoftware,KiCad,Pcbnew,no-vcs-found-5013ea2~58~ubuntu16.04.1*
G04 #@! TF.CreationDate,2017-05-24T10:44:45-06:00*
G04 #@! TF.ProjectId,HiBeam_8-pack_v02,48694265616D5F382D7061636B5F7630,rev?*
G04 #@! TF.FileFunction,Legend,Bot*
G04 #@! TF.FilePolarity,Positive*
%FSLAX46Y46*%
G04 Gerber Fmt 4.6, Leading zero omitted, Abs format (unit mm)*
G04 Created by KiCad (PCBNEW no-vcs-found-5013ea2~58~ubuntu16.04.1) date Wed May 24 10:44:45 2017*
%MOMM*%
%LPD*%
G01*
G04 APERTURE LIST*
%ADD10C,0.100000*%
%ADD11C,0.203200*%
%ADD12C,0.010000*%
G04 APERTURE END LIST*
D10*
D11*
X136953208Y-101265637D02*
X137401788Y-101084399D01*
X137627884Y-101514855D01*
X137564902Y-101488121D01*
X137457063Y-101479510D01*
X137232772Y-101570130D01*
X137161180Y-101651235D01*
X137134446Y-101714217D01*
X137125836Y-101822057D01*
X137216455Y-102046347D01*
X137297560Y-102117939D01*
X137360542Y-102144674D01*
X137468382Y-102153284D01*
X137692672Y-102062665D01*
X137764265Y-101981559D01*
X137790999Y-101918577D01*
X136639201Y-101392504D02*
X136705795Y-102461389D01*
X136011189Y-101646237D01*
X137519552Y-96979124D02*
X137617944Y-96934150D01*
X137762998Y-96939215D01*
X137906364Y-96992632D01*
X137999690Y-97092712D01*
X138044665Y-97191104D01*
X138086262Y-97386198D01*
X138081197Y-97531252D01*
X138026091Y-97722970D01*
X137974363Y-97817984D01*
X137874283Y-97911310D01*
X137727540Y-97954596D01*
X137630837Y-97951220D01*
X137487471Y-97897803D01*
X137440808Y-97847763D01*
X137452627Y-97509302D01*
X137646033Y-97516056D01*
X137002268Y-97929269D02*
X137037726Y-96913888D01*
X136422050Y-97909008D01*
X136457508Y-96893627D01*
X135938535Y-97892123D02*
X135973993Y-96876742D01*
X135732236Y-96868300D01*
X135585493Y-96911586D01*
X135485413Y-97004912D01*
X135433685Y-97099926D01*
X135378579Y-97291644D01*
X135373514Y-97436698D01*
X135415111Y-97631792D01*
X135460086Y-97730184D01*
X135553412Y-97830264D01*
X135696778Y-97883681D01*
X135938535Y-97892123D01*
X152974523Y-95074619D02*
X152974523Y-94058619D01*
X152974523Y-94542428D02*
X152393952Y-94542428D01*
X152393952Y-95074619D02*
X152393952Y-94058619D01*
X151910142Y-95074619D02*
X151910142Y-94397285D01*
X151910142Y-94058619D02*
X151958523Y-94107000D01*
X151910142Y-94155380D01*
X151861761Y-94107000D01*
X151910142Y-94058619D01*
X151910142Y-94155380D01*
X151087666Y-94542428D02*
X150942523Y-94590809D01*
X150894142Y-94639190D01*
X150845761Y-94735952D01*
X150845761Y-94881095D01*
X150894142Y-94977857D01*
X150942523Y-95026238D01*
X151039285Y-95074619D01*
X151426333Y-95074619D01*
X151426333Y-94058619D01*
X151087666Y-94058619D01*
X150990904Y-94107000D01*
X150942523Y-94155380D01*
X150894142Y-94252142D01*
X150894142Y-94348904D01*
X150942523Y-94445666D01*
X150990904Y-94494047D01*
X151087666Y-94542428D01*
X151426333Y-94542428D01*
X150023285Y-95026238D02*
X150120047Y-95074619D01*
X150313571Y-95074619D01*
X150410333Y-95026238D01*
X150458714Y-94929476D01*
X150458714Y-94542428D01*
X150410333Y-94445666D01*
X150313571Y-94397285D01*
X150120047Y-94397285D01*
X150023285Y-94445666D01*
X149974904Y-94542428D01*
X149974904Y-94639190D01*
X150458714Y-94735952D01*
X149104047Y-95074619D02*
X149104047Y-94542428D01*
X149152428Y-94445666D01*
X149249190Y-94397285D01*
X149442714Y-94397285D01*
X149539476Y-94445666D01*
X149104047Y-95026238D02*
X149200809Y-95074619D01*
X149442714Y-95074619D01*
X149539476Y-95026238D01*
X149587857Y-94929476D01*
X149587857Y-94832714D01*
X149539476Y-94735952D01*
X149442714Y-94687571D01*
X149200809Y-94687571D01*
X149104047Y-94639190D01*
X148620238Y-95074619D02*
X148620238Y-94397285D01*
X148620238Y-94494047D02*
X148571857Y-94445666D01*
X148475095Y-94397285D01*
X148329952Y-94397285D01*
X148233190Y-94445666D01*
X148184809Y-94542428D01*
X148184809Y-95074619D01*
X148184809Y-94542428D02*
X148136428Y-94445666D01*
X148039666Y-94397285D01*
X147894523Y-94397285D01*
X147797761Y-94445666D01*
X147749380Y-94542428D01*
X147749380Y-95074619D01*
X147313952Y-95026238D02*
X147217190Y-95074619D01*
X147023666Y-95074619D01*
X146926904Y-95026238D01*
X146878523Y-94929476D01*
X146878523Y-94881095D01*
X146926904Y-94784333D01*
X147023666Y-94735952D01*
X147168809Y-94735952D01*
X147265571Y-94687571D01*
X147313952Y-94590809D01*
X147313952Y-94542428D01*
X147265571Y-94445666D01*
X147168809Y-94397285D01*
X147023666Y-94397285D01*
X146926904Y-94445666D01*
X145523857Y-94494047D02*
X145620619Y-94445666D01*
X145669000Y-94397285D01*
X145717380Y-94300523D01*
X145717380Y-94252142D01*
X145669000Y-94155380D01*
X145620619Y-94107000D01*
X145523857Y-94058619D01*
X145330333Y-94058619D01*
X145233571Y-94107000D01*
X145185190Y-94155380D01*
X145136809Y-94252142D01*
X145136809Y-94300523D01*
X145185190Y-94397285D01*
X145233571Y-94445666D01*
X145330333Y-94494047D01*
X145523857Y-94494047D01*
X145620619Y-94542428D01*
X145669000Y-94590809D01*
X145717380Y-94687571D01*
X145717380Y-94881095D01*
X145669000Y-94977857D01*
X145620619Y-95026238D01*
X145523857Y-95074619D01*
X145330333Y-95074619D01*
X145233571Y-95026238D01*
X145185190Y-94977857D01*
X145136809Y-94881095D01*
X145136809Y-94687571D01*
X145185190Y-94590809D01*
X145233571Y-94542428D01*
X145330333Y-94494047D01*
X144701380Y-94687571D02*
X143927285Y-94687571D01*
X143443476Y-94397285D02*
X143443476Y-95413285D01*
X143443476Y-94445666D02*
X143346714Y-94397285D01*
X143153190Y-94397285D01*
X143056428Y-94445666D01*
X143008047Y-94494047D01*
X142959666Y-94590809D01*
X142959666Y-94881095D01*
X143008047Y-94977857D01*
X143056428Y-95026238D01*
X143153190Y-95074619D01*
X143346714Y-95074619D01*
X143443476Y-95026238D01*
X142088809Y-95074619D02*
X142088809Y-94542428D01*
X142137190Y-94445666D01*
X142233952Y-94397285D01*
X142427476Y-94397285D01*
X142524238Y-94445666D01*
X142088809Y-95026238D02*
X142185571Y-95074619D01*
X142427476Y-95074619D01*
X142524238Y-95026238D01*
X142572619Y-94929476D01*
X142572619Y-94832714D01*
X142524238Y-94735952D01*
X142427476Y-94687571D01*
X142185571Y-94687571D01*
X142088809Y-94639190D01*
X141169571Y-95026238D02*
X141266333Y-95074619D01*
X141459857Y-95074619D01*
X141556619Y-95026238D01*
X141605000Y-94977857D01*
X141653380Y-94881095D01*
X141653380Y-94590809D01*
X141605000Y-94494047D01*
X141556619Y-94445666D01*
X141459857Y-94397285D01*
X141266333Y-94397285D01*
X141169571Y-94445666D01*
X140734142Y-95074619D02*
X140734142Y-94058619D01*
X140637380Y-94687571D02*
X140347095Y-95074619D01*
X140347095Y-94397285D02*
X140734142Y-94784333D01*
X145940846Y-108069710D02*
X144934733Y-107928310D01*
X144901067Y-108167861D01*
X144928777Y-108318324D01*
X145011130Y-108427611D01*
X145100217Y-108488988D01*
X145285124Y-108563831D01*
X145428855Y-108584031D01*
X145627228Y-108563055D01*
X145729782Y-108528611D01*
X145839069Y-108446258D01*
X145907179Y-108309260D01*
X145940846Y-108069710D01*
X145799446Y-109075822D02*
X144793333Y-108934422D01*
X143445153Y-108193099D02*
X143507163Y-108164183D01*
X143602268Y-108044340D01*
X143635363Y-107953414D01*
X143639541Y-107800477D01*
X143581709Y-107676456D01*
X143507330Y-107597898D01*
X143342025Y-107486246D01*
X143205635Y-107436604D01*
X143007235Y-107415878D01*
X142899761Y-107428247D01*
X142775740Y-107486079D01*
X142680635Y-107605921D01*
X142647541Y-107696848D01*
X142643362Y-107849785D01*
X142672278Y-107911795D01*
X143387154Y-108635362D02*
X142432426Y-108287870D01*
X142062206Y-106297376D02*
X141200589Y-105758978D01*
X141072399Y-105964125D01*
X141036514Y-106112851D01*
X141067297Y-106246186D01*
X141123718Y-106338491D01*
X141262197Y-106482072D01*
X141385285Y-106558986D01*
X141575041Y-106620509D01*
X141682737Y-106630756D01*
X141816072Y-106599973D01*
X141934016Y-106502523D01*
X142062206Y-106297376D01*
X140559639Y-106784712D02*
X140457087Y-106948830D01*
X140446840Y-107056526D01*
X140477623Y-107189861D01*
X140616102Y-107333443D01*
X140903308Y-107512909D01*
X141093063Y-107574431D01*
X141226398Y-107543648D01*
X141318704Y-107487228D01*
X141421256Y-107323110D01*
X141431502Y-107215413D01*
X141400719Y-107082079D01*
X141262240Y-106938497D01*
X140975034Y-106759031D01*
X140785279Y-106697509D01*
X140651944Y-106728291D01*
X140559639Y-106784712D01*
X139858254Y-105454651D02*
X139926665Y-105453457D01*
X140062292Y-105382658D01*
X140129508Y-105313053D01*
X140195531Y-105175038D01*
X140193142Y-105038217D01*
X140157146Y-104936198D01*
X140051545Y-104766963D01*
X139947138Y-104666138D01*
X139774320Y-104566507D01*
X139671107Y-104534093D01*
X139534286Y-104536481D01*
X139398659Y-104607280D01*
X139331443Y-104676885D01*
X139265420Y-104814900D01*
X139266614Y-104883311D01*
X138760103Y-105268525D02*
X138625670Y-105407734D01*
X138593255Y-105510947D01*
X138595644Y-105647768D01*
X138701245Y-105817003D01*
X138944861Y-106052261D01*
X139117679Y-106151892D01*
X139254500Y-106149503D01*
X139356519Y-106113507D01*
X139490952Y-105974298D01*
X139523366Y-105871085D01*
X139520978Y-105734264D01*
X139415377Y-105565028D01*
X139171760Y-105329771D01*
X138998943Y-105230140D01*
X138862121Y-105232528D01*
X138760103Y-105268525D01*
X137898314Y-103138722D02*
X138299410Y-102868179D01*
X138610062Y-103242221D01*
X138542899Y-103229165D01*
X138435625Y-103243164D01*
X138235077Y-103378436D01*
X138181912Y-103472654D01*
X138168857Y-103539818D01*
X138182856Y-103647091D01*
X138318127Y-103847640D01*
X138412345Y-103900805D01*
X138479509Y-103913860D01*
X138586783Y-103899861D01*
X138787331Y-103764590D01*
X138840496Y-103670371D01*
X138853551Y-103603207D01*
X137617546Y-103328102D02*
X137904919Y-104359784D01*
X137056012Y-103706862D01*
X137554721Y-98806297D02*
X137641612Y-98741848D01*
X137784550Y-98716645D01*
X137935889Y-98739087D01*
X138047983Y-98817576D01*
X138112432Y-98904467D01*
X138193683Y-99086649D01*
X138218886Y-99229587D01*
X138204845Y-99428572D01*
X138174002Y-99532265D01*
X138095513Y-99644360D01*
X137960976Y-99717209D01*
X137865684Y-99734012D01*
X137714345Y-99711570D01*
X137658298Y-99672325D01*
X137599489Y-99338804D01*
X137790073Y-99305198D01*
X137246287Y-99843228D02*
X137069861Y-98842664D01*
X136674536Y-99944043D01*
X136498109Y-98943479D01*
X136198077Y-100028056D02*
X136021650Y-99027491D01*
X135783420Y-99069498D01*
X135648884Y-99142348D01*
X135570394Y-99254442D01*
X135539551Y-99358135D01*
X135525510Y-99557120D01*
X135550714Y-99700058D01*
X135631965Y-99882240D01*
X135696413Y-99969131D01*
X135808508Y-100047620D01*
X135959847Y-100070062D01*
X136198077Y-100028056D01*
D12*
G36*
X144302480Y-89202260D02*
X144302480Y-89281000D01*
X144312640Y-89311480D01*
X144322800Y-89341960D01*
X144353280Y-89362280D01*
X144383760Y-89372440D01*
X144454880Y-89372440D01*
X144492980Y-89352120D01*
X144533620Y-89331800D01*
X144564100Y-89311480D01*
X144604740Y-89281000D01*
X144632680Y-89260680D01*
X144663160Y-89230200D01*
X144683480Y-89192100D01*
X144703800Y-89161620D01*
X144713960Y-89120980D01*
X144724120Y-89090500D01*
X144713960Y-89060020D01*
X144703800Y-89042240D01*
X144693640Y-89011760D01*
X144673320Y-88981280D01*
X144632680Y-88950800D01*
X144594580Y-88930480D01*
X144543780Y-88920320D01*
X144503140Y-88910160D01*
X144472660Y-88910160D01*
X144444720Y-88920320D01*
X144414240Y-88920320D01*
X144424400Y-88910160D01*
X144462500Y-88882220D01*
X144523460Y-88851740D01*
X144604740Y-88821260D01*
X144693640Y-88790780D01*
X144792700Y-88790780D01*
X144904460Y-88811100D01*
X145013680Y-88872060D01*
X145102580Y-88950800D01*
X145153380Y-89021920D01*
X145183860Y-89110820D01*
X145183860Y-89192100D01*
X145163540Y-89281000D01*
X145112740Y-89372440D01*
X145044160Y-89451180D01*
X144962880Y-89540080D01*
X144894300Y-89621360D01*
X144863820Y-89692480D01*
X144863820Y-89761060D01*
X144884140Y-89822020D01*
X144924780Y-89870280D01*
X144983200Y-89910920D01*
X145064480Y-89931240D01*
X145143220Y-89931240D01*
X145194020Y-89921080D01*
X145244820Y-89900760D01*
X145272760Y-89880440D01*
X145303240Y-89852500D01*
X145323560Y-89811860D01*
X145333720Y-89781380D01*
X145333720Y-89750900D01*
X145323560Y-89720420D01*
X145303240Y-89692480D01*
X145282920Y-89672160D01*
X145262600Y-89651840D01*
X145234660Y-89641680D01*
X145214340Y-89631520D01*
X145194020Y-89621360D01*
X145183860Y-89611200D01*
X145204180Y-89601040D01*
X145224500Y-89601040D01*
X145262600Y-89590880D01*
X145343880Y-89590880D01*
X145404840Y-89601040D01*
X145453100Y-89621360D01*
X145503900Y-89641680D01*
X145544540Y-89672160D01*
X145592800Y-89700100D01*
X145623280Y-89750900D01*
X145653760Y-89811860D01*
X145674080Y-89870280D01*
X145684240Y-89961720D01*
X145694400Y-90050620D01*
X145694400Y-91330780D01*
X145684240Y-91330780D01*
X145663920Y-91300300D01*
X145633440Y-91272360D01*
X145602960Y-91231720D01*
X145554700Y-91180920D01*
X145503900Y-91122500D01*
X145442940Y-91061540D01*
X145394680Y-90990420D01*
X145323560Y-90921840D01*
X145262600Y-90860880D01*
X145214340Y-90802460D01*
X145163540Y-90761820D01*
X145112740Y-90721180D01*
X145064480Y-90690700D01*
X145003520Y-90680540D01*
X144813020Y-90680540D01*
X144693640Y-90660220D01*
X144584420Y-90632280D01*
X144482820Y-90591640D01*
X144383760Y-90530680D01*
X144302480Y-90462100D01*
X144223740Y-90380820D01*
X144152620Y-90291920D01*
X144053560Y-90111580D01*
X144002760Y-89931240D01*
X143992600Y-89750900D01*
X144023080Y-89590880D01*
X144073880Y-89451180D01*
X144142460Y-89331800D01*
X144223740Y-89240360D01*
X144302480Y-89202260D01*
G37*
X144302480Y-89202260D02*
X144302480Y-89281000D01*
X144312640Y-89311480D01*
X144322800Y-89341960D01*
X144353280Y-89362280D01*
X144383760Y-89372440D01*
X144454880Y-89372440D01*
X144492980Y-89352120D01*
X144533620Y-89331800D01*
X144564100Y-89311480D01*
X144604740Y-89281000D01*
X144632680Y-89260680D01*
X144663160Y-89230200D01*
X144683480Y-89192100D01*
X144703800Y-89161620D01*
X144713960Y-89120980D01*
X144724120Y-89090500D01*
X144713960Y-89060020D01*
X144703800Y-89042240D01*
X144693640Y-89011760D01*
X144673320Y-88981280D01*
X144632680Y-88950800D01*
X144594580Y-88930480D01*
X144543780Y-88920320D01*
X144503140Y-88910160D01*
X144472660Y-88910160D01*
X144444720Y-88920320D01*
X144414240Y-88920320D01*
X144424400Y-88910160D01*
X144462500Y-88882220D01*
X144523460Y-88851740D01*
X144604740Y-88821260D01*
X144693640Y-88790780D01*
X144792700Y-88790780D01*
X144904460Y-88811100D01*
X145013680Y-88872060D01*
X145102580Y-88950800D01*
X145153380Y-89021920D01*
X145183860Y-89110820D01*
X145183860Y-89192100D01*
X145163540Y-89281000D01*
X145112740Y-89372440D01*
X145044160Y-89451180D01*
X144962880Y-89540080D01*
X144894300Y-89621360D01*
X144863820Y-89692480D01*
X144863820Y-89761060D01*
X144884140Y-89822020D01*
X144924780Y-89870280D01*
X144983200Y-89910920D01*
X145064480Y-89931240D01*
X145143220Y-89931240D01*
X145194020Y-89921080D01*
X145244820Y-89900760D01*
X145272760Y-89880440D01*
X145303240Y-89852500D01*
X145323560Y-89811860D01*
X145333720Y-89781380D01*
X145333720Y-89750900D01*
X145323560Y-89720420D01*
X145303240Y-89692480D01*
X145282920Y-89672160D01*
X145262600Y-89651840D01*
X145234660Y-89641680D01*
X145214340Y-89631520D01*
X145194020Y-89621360D01*
X145183860Y-89611200D01*
X145204180Y-89601040D01*
X145224500Y-89601040D01*
X145262600Y-89590880D01*
X145343880Y-89590880D01*
X145404840Y-89601040D01*
X145453100Y-89621360D01*
X145503900Y-89641680D01*
X145544540Y-89672160D01*
X145592800Y-89700100D01*
X145623280Y-89750900D01*
X145653760Y-89811860D01*
X145674080Y-89870280D01*
X145684240Y-89961720D01*
X145694400Y-90050620D01*
X145694400Y-91330780D01*
X145684240Y-91330780D01*
X145663920Y-91300300D01*
X145633440Y-91272360D01*
X145602960Y-91231720D01*
X145554700Y-91180920D01*
X145503900Y-91122500D01*
X145442940Y-91061540D01*
X145394680Y-90990420D01*
X145323560Y-90921840D01*
X145262600Y-90860880D01*
X145214340Y-90802460D01*
X145163540Y-90761820D01*
X145112740Y-90721180D01*
X145064480Y-90690700D01*
X145003520Y-90680540D01*
X144813020Y-90680540D01*
X144693640Y-90660220D01*
X144584420Y-90632280D01*
X144482820Y-90591640D01*
X144383760Y-90530680D01*
X144302480Y-90462100D01*
X144223740Y-90380820D01*
X144152620Y-90291920D01*
X144053560Y-90111580D01*
X144002760Y-89931240D01*
X143992600Y-89750900D01*
X144023080Y-89590880D01*
X144073880Y-89451180D01*
X144142460Y-89331800D01*
X144223740Y-89240360D01*
X144302480Y-89202260D01*
G36*
X142552420Y-91620340D02*
X142184120Y-91620340D01*
X142184120Y-91821000D01*
X142173960Y-91821000D01*
X142133320Y-91760040D01*
X142092680Y-91721940D01*
X142044420Y-91681300D01*
X141983460Y-91640660D01*
X141922500Y-91620340D01*
X141864080Y-91600020D01*
X141803120Y-91592400D01*
X141744700Y-91592400D01*
X141602460Y-91600020D01*
X141493240Y-91630500D01*
X141404340Y-91681300D01*
X141333220Y-91752420D01*
X141282420Y-91831160D01*
X141254480Y-91930220D01*
X141234160Y-92041980D01*
X141224000Y-92171520D01*
X141224000Y-93040200D01*
X141612620Y-93040200D01*
X141612620Y-92240100D01*
X141622780Y-92161360D01*
X141632940Y-92090240D01*
X141643100Y-92031820D01*
X141673580Y-91981020D01*
X141704060Y-91940380D01*
X141754860Y-91912440D01*
X141803120Y-91902280D01*
X141864080Y-91892120D01*
X141942820Y-91902280D01*
X142003780Y-91912440D01*
X142054580Y-91940380D01*
X142092680Y-91991180D01*
X142123160Y-92041980D01*
X142153640Y-92110560D01*
X142163800Y-92202000D01*
X142163800Y-93040200D01*
X142552420Y-93040200D01*
X142552420Y-91800680D01*
X142552420Y-91620340D01*
G37*
X142552420Y-91620340D02*
X142184120Y-91620340D01*
X142184120Y-91821000D01*
X142173960Y-91821000D01*
X142133320Y-91760040D01*
X142092680Y-91721940D01*
X142044420Y-91681300D01*
X141983460Y-91640660D01*
X141922500Y-91620340D01*
X141864080Y-91600020D01*
X141803120Y-91592400D01*
X141744700Y-91592400D01*
X141602460Y-91600020D01*
X141493240Y-91630500D01*
X141404340Y-91681300D01*
X141333220Y-91752420D01*
X141282420Y-91831160D01*
X141254480Y-91930220D01*
X141234160Y-92041980D01*
X141224000Y-92171520D01*
X141224000Y-93040200D01*
X141612620Y-93040200D01*
X141612620Y-92240100D01*
X141622780Y-92161360D01*
X141632940Y-92090240D01*
X141643100Y-92031820D01*
X141673580Y-91981020D01*
X141704060Y-91940380D01*
X141754860Y-91912440D01*
X141803120Y-91902280D01*
X141864080Y-91892120D01*
X141942820Y-91902280D01*
X142003780Y-91912440D01*
X142054580Y-91940380D01*
X142092680Y-91991180D01*
X142123160Y-92041980D01*
X142153640Y-92110560D01*
X142163800Y-92202000D01*
X142163800Y-93040200D01*
X142552420Y-93040200D01*
X142552420Y-91800680D01*
X142552420Y-91620340D01*
G36*
X142763240Y-93040200D02*
X143134080Y-93040200D01*
X143134080Y-92842080D01*
X143144240Y-92842080D01*
X143184880Y-92900500D01*
X143222980Y-92951300D01*
X143273780Y-92991940D01*
X143334740Y-93022420D01*
X143383000Y-93040200D01*
X143443960Y-93060520D01*
X143512540Y-93070680D01*
X143573500Y-93080840D01*
X143713200Y-93070680D01*
X143822420Y-93030040D01*
X143913860Y-92981780D01*
X143982440Y-92920820D01*
X144033240Y-92831920D01*
X144063720Y-92730320D01*
X144084040Y-92621100D01*
X144084040Y-91620340D01*
X143703040Y-91620340D01*
X143703040Y-92420440D01*
X143692880Y-92501720D01*
X143682720Y-92580460D01*
X143672560Y-92641420D01*
X143644620Y-92682060D01*
X143614140Y-92720160D01*
X143563340Y-92750640D01*
X143512540Y-92760800D01*
X143454120Y-92770960D01*
X143372840Y-92760800D01*
X143314420Y-92750640D01*
X143263620Y-92720160D01*
X143222980Y-92682060D01*
X143192500Y-92621100D01*
X143164560Y-92552520D01*
X143154400Y-92471240D01*
X143154400Y-91620340D01*
X142763240Y-91620340D01*
X142763240Y-92862400D01*
X142763240Y-93040200D01*
G37*
X142763240Y-93040200D02*
X143134080Y-93040200D01*
X143134080Y-92842080D01*
X143144240Y-92842080D01*
X143184880Y-92900500D01*
X143222980Y-92951300D01*
X143273780Y-92991940D01*
X143334740Y-93022420D01*
X143383000Y-93040200D01*
X143443960Y-93060520D01*
X143512540Y-93070680D01*
X143573500Y-93080840D01*
X143713200Y-93070680D01*
X143822420Y-93030040D01*
X143913860Y-92981780D01*
X143982440Y-92920820D01*
X144033240Y-92831920D01*
X144063720Y-92730320D01*
X144084040Y-92621100D01*
X144084040Y-91620340D01*
X143703040Y-91620340D01*
X143703040Y-92420440D01*
X143692880Y-92501720D01*
X143682720Y-92580460D01*
X143672560Y-92641420D01*
X143644620Y-92682060D01*
X143614140Y-92720160D01*
X143563340Y-92750640D01*
X143512540Y-92760800D01*
X143454120Y-92770960D01*
X143372840Y-92760800D01*
X143314420Y-92750640D01*
X143263620Y-92720160D01*
X143222980Y-92682060D01*
X143192500Y-92621100D01*
X143164560Y-92552520D01*
X143154400Y-92471240D01*
X143154400Y-91620340D01*
X142763240Y-91620340D01*
X142763240Y-92862400D01*
X142763240Y-93040200D01*
G36*
X144853660Y-91881960D02*
X145244820Y-91881960D01*
X145204180Y-91851480D01*
X145173700Y-91821000D01*
X145143220Y-91790520D01*
X145102580Y-91752420D01*
X145074640Y-91721940D01*
X145044160Y-91691460D01*
X145003520Y-91660980D01*
X144973040Y-91620340D01*
X144853660Y-91620340D01*
X144853660Y-91422220D01*
X144823180Y-91340940D01*
X144792700Y-91272360D01*
X144744440Y-91211400D01*
X144673320Y-91160600D01*
X144594580Y-91122500D01*
X144492980Y-91092020D01*
X144203420Y-91092020D01*
X144183100Y-91102180D01*
X144183100Y-91381580D01*
X144353280Y-91381580D01*
X144393920Y-91391740D01*
X144414240Y-91401900D01*
X144434560Y-91412060D01*
X144454880Y-91440000D01*
X144462500Y-91460320D01*
X144462500Y-91500960D01*
X144472660Y-91541600D01*
X144472660Y-91620340D01*
X144203420Y-91620340D01*
X144203420Y-91881960D01*
X144472660Y-91881960D01*
X144472660Y-93040200D01*
X144853660Y-93040200D01*
X144853660Y-92031820D01*
X144853660Y-91881960D01*
G37*
X144853660Y-91881960D02*
X145244820Y-91881960D01*
X145204180Y-91851480D01*
X145173700Y-91821000D01*
X145143220Y-91790520D01*
X145102580Y-91752420D01*
X145074640Y-91721940D01*
X145044160Y-91691460D01*
X145003520Y-91660980D01*
X144973040Y-91620340D01*
X144853660Y-91620340D01*
X144853660Y-91422220D01*
X144823180Y-91340940D01*
X144792700Y-91272360D01*
X144744440Y-91211400D01*
X144673320Y-91160600D01*
X144594580Y-91122500D01*
X144492980Y-91092020D01*
X144203420Y-91092020D01*
X144183100Y-91102180D01*
X144183100Y-91381580D01*
X144353280Y-91381580D01*
X144393920Y-91391740D01*
X144414240Y-91401900D01*
X144434560Y-91412060D01*
X144454880Y-91440000D01*
X144462500Y-91460320D01*
X144462500Y-91500960D01*
X144472660Y-91541600D01*
X144472660Y-91620340D01*
X144203420Y-91620340D01*
X144203420Y-91881960D01*
X144472660Y-91881960D01*
X144472660Y-93040200D01*
X144853660Y-93040200D01*
X144853660Y-92031820D01*
X144853660Y-91881960D01*
G36*
X146494500Y-91300300D02*
X146103340Y-91092020D01*
X146103340Y-92130880D01*
X145613120Y-91620340D01*
X145153380Y-91620340D01*
X145684240Y-92141040D01*
X145092420Y-93040200D01*
X145564860Y-93040200D01*
X145953480Y-92410280D01*
X146103340Y-92552520D01*
X146103340Y-93040200D01*
X146494500Y-93040200D01*
X146494500Y-91300300D01*
G37*
X146494500Y-91300300D02*
X146103340Y-91092020D01*
X146103340Y-92130880D01*
X145613120Y-91620340D01*
X145153380Y-91620340D01*
X145684240Y-92141040D01*
X145092420Y-93040200D01*
X145564860Y-93040200D01*
X145953480Y-92410280D01*
X146103340Y-92552520D01*
X146103340Y-93040200D01*
X146494500Y-93040200D01*
X146494500Y-91300300D01*
G36*
X147553680Y-91691460D02*
X147502880Y-91681300D01*
X147464780Y-91671140D01*
X147413980Y-91671140D01*
X147363180Y-91660980D01*
X147322540Y-91650820D01*
X147274280Y-91640660D01*
X147223480Y-91630500D01*
X147182840Y-91620340D01*
X147182840Y-91892120D01*
X147144740Y-91821000D01*
X147104100Y-91770200D01*
X147053300Y-91711780D01*
X147002500Y-91671140D01*
X146933920Y-91630500D01*
X146872960Y-91610180D01*
X146804380Y-91592400D01*
X146664680Y-91592400D01*
X146654520Y-91600020D01*
X146644360Y-91600020D01*
X146644360Y-91960700D01*
X146654520Y-91960700D01*
X146674840Y-91950540D01*
X146784060Y-91950540D01*
X146883120Y-91960700D01*
X146964400Y-91981020D01*
X147032980Y-92021660D01*
X147083780Y-92080080D01*
X147124420Y-92151200D01*
X147144740Y-92222320D01*
X147162520Y-92311220D01*
X147162520Y-93040200D01*
X147553680Y-93040200D01*
X147553680Y-91861640D01*
X147553680Y-91691460D01*
G37*
X147553680Y-91691460D02*
X147502880Y-91681300D01*
X147464780Y-91671140D01*
X147413980Y-91671140D01*
X147363180Y-91660980D01*
X147322540Y-91650820D01*
X147274280Y-91640660D01*
X147223480Y-91630500D01*
X147182840Y-91620340D01*
X147182840Y-91892120D01*
X147144740Y-91821000D01*
X147104100Y-91770200D01*
X147053300Y-91711780D01*
X147002500Y-91671140D01*
X146933920Y-91630500D01*
X146872960Y-91610180D01*
X146804380Y-91592400D01*
X146664680Y-91592400D01*
X146654520Y-91600020D01*
X146644360Y-91600020D01*
X146644360Y-91960700D01*
X146654520Y-91960700D01*
X146674840Y-91950540D01*
X146784060Y-91950540D01*
X146883120Y-91960700D01*
X146964400Y-91981020D01*
X147032980Y-92021660D01*
X147083780Y-92080080D01*
X147124420Y-92151200D01*
X147144740Y-92222320D01*
X147162520Y-92311220D01*
X147162520Y-93040200D01*
X147553680Y-93040200D01*
X147553680Y-91861640D01*
X147553680Y-91691460D01*
G36*
X148544280Y-92440760D02*
X148574760Y-92450920D01*
X148592540Y-92461080D01*
X148602700Y-92471240D01*
X148623020Y-92481400D01*
X148643340Y-92491560D01*
X148653500Y-92501720D01*
X148673820Y-92511880D01*
X148683980Y-92532200D01*
X148694140Y-92552520D01*
X148704300Y-92570300D01*
X148704300Y-92590620D01*
X148714460Y-92610940D01*
X148714460Y-92661740D01*
X148704300Y-92692220D01*
X148704300Y-92710000D01*
X148694140Y-92730320D01*
X148683980Y-92740480D01*
X148673820Y-92760800D01*
X148653500Y-92770960D01*
X148643340Y-92781120D01*
X148623020Y-92791280D01*
X148602700Y-92801440D01*
X148584920Y-92801440D01*
X148564600Y-92811600D01*
X148544280Y-92811600D01*
X148523960Y-92821760D01*
X148473160Y-92821760D01*
X148424900Y-92811600D01*
X148374100Y-92811600D01*
X148333460Y-92791280D01*
X148292820Y-92781120D01*
X148264880Y-92760800D01*
X148244560Y-92740480D01*
X148224240Y-92710000D01*
X148203920Y-92692220D01*
X148193760Y-92661740D01*
X148183600Y-92631260D01*
X148173440Y-92610940D01*
X148163280Y-92580460D01*
X148163280Y-92351860D01*
X148173440Y-92362020D01*
X148183600Y-92372180D01*
X148203920Y-92372180D01*
X148224240Y-92382340D01*
X148244560Y-92392500D01*
X148264880Y-92392500D01*
X148282660Y-92400120D01*
X148323300Y-92400120D01*
X148374100Y-92202000D01*
X148302980Y-92181680D01*
X148244560Y-92161360D01*
X148193760Y-92130880D01*
X148163280Y-92090240D01*
X148163280Y-91981020D01*
X148173440Y-91960700D01*
X148183600Y-91940380D01*
X148193760Y-91920060D01*
X148203920Y-91912440D01*
X148214080Y-91892120D01*
X148234400Y-91881960D01*
X148254720Y-91871800D01*
X148272500Y-91861640D01*
X148292820Y-91861640D01*
X148313140Y-91851480D01*
X148493480Y-91851480D01*
X148513800Y-91861640D01*
X148534120Y-91871800D01*
X148554440Y-91881960D01*
X148574760Y-91892120D01*
X148592540Y-91902280D01*
X148602700Y-91912440D01*
X148623020Y-91930220D01*
X148633180Y-91940380D01*
X148643340Y-91960700D01*
X148653500Y-91991180D01*
X148663660Y-92011500D01*
X148663660Y-92062300D01*
X149054820Y-92062300D01*
X149044660Y-92001340D01*
X149034500Y-91940380D01*
X149014180Y-91881960D01*
X148983700Y-91841320D01*
X148953220Y-91790520D01*
X148922740Y-91752420D01*
X148884640Y-91721940D01*
X148833840Y-91691460D01*
X148783040Y-91660980D01*
X148734780Y-91640660D01*
X148683980Y-91630500D01*
X148623020Y-91610180D01*
X148564600Y-91600020D01*
X148513800Y-91592400D01*
X148282660Y-91592400D01*
X148234400Y-91600020D01*
X148173440Y-91600020D01*
X148122640Y-91610180D01*
X148074380Y-91630500D01*
X148023580Y-91640660D01*
X147972780Y-91660980D01*
X147934680Y-91691460D01*
X147894040Y-91721940D01*
X147853400Y-91752420D01*
X147822920Y-91790520D01*
X147802600Y-91831160D01*
X147784820Y-91881960D01*
X147774660Y-91930220D01*
X147774660Y-92801440D01*
X147764500Y-92821760D01*
X147764500Y-92910660D01*
X147754340Y-92930980D01*
X147754340Y-92951300D01*
X147744180Y-92971620D01*
X147744180Y-93002100D01*
X147734020Y-93022420D01*
X147723860Y-93030040D01*
X147723860Y-93040200D01*
X148112480Y-93040200D01*
X148112480Y-93030040D01*
X148122640Y-93022420D01*
X148122640Y-93012260D01*
X148132800Y-93002100D01*
X148132800Y-92971620D01*
X148142960Y-92961460D01*
X148142960Y-92900500D01*
X148163280Y-92930980D01*
X148193760Y-92951300D01*
X148214080Y-92971620D01*
X148244560Y-92991940D01*
X148272500Y-93002100D01*
X148302980Y-93022420D01*
X148333460Y-93030040D01*
X148363940Y-93040200D01*
X148394420Y-93050360D01*
X148424900Y-93060520D01*
X148452840Y-93060520D01*
X148483320Y-93070680D01*
X148523960Y-93070680D01*
X148554440Y-93080840D01*
X148663660Y-93080840D01*
X148714460Y-93070680D01*
X148762720Y-93070680D01*
X148803360Y-93060520D01*
X148854160Y-93040200D01*
X148894800Y-93022420D01*
X148922740Y-93002100D01*
X148963380Y-92981780D01*
X148993860Y-92951300D01*
X149014180Y-92920820D01*
X149044660Y-92880180D01*
X149062440Y-92852240D01*
X149072600Y-92801440D01*
X149092920Y-92760800D01*
X149092920Y-92710000D01*
X149103080Y-92661740D01*
X149082760Y-92552520D01*
X149054820Y-92461080D01*
X149014180Y-92392500D01*
X148943060Y-92331540D01*
X148874480Y-92290900D01*
X148793200Y-92260420D01*
X148714460Y-92240100D01*
X148623020Y-92232480D01*
X148544280Y-92440760D01*
G37*
X148544280Y-92440760D02*
X148574760Y-92450920D01*
X148592540Y-92461080D01*
X148602700Y-92471240D01*
X148623020Y-92481400D01*
X148643340Y-92491560D01*
X148653500Y-92501720D01*
X148673820Y-92511880D01*
X148683980Y-92532200D01*
X148694140Y-92552520D01*
X148704300Y-92570300D01*
X148704300Y-92590620D01*
X148714460Y-92610940D01*
X148714460Y-92661740D01*
X148704300Y-92692220D01*
X148704300Y-92710000D01*
X148694140Y-92730320D01*
X148683980Y-92740480D01*
X148673820Y-92760800D01*
X148653500Y-92770960D01*
X148643340Y-92781120D01*
X148623020Y-92791280D01*
X148602700Y-92801440D01*
X148584920Y-92801440D01*
X148564600Y-92811600D01*
X148544280Y-92811600D01*
X148523960Y-92821760D01*
X148473160Y-92821760D01*
X148424900Y-92811600D01*
X148374100Y-92811600D01*
X148333460Y-92791280D01*
X148292820Y-92781120D01*
X148264880Y-92760800D01*
X148244560Y-92740480D01*
X148224240Y-92710000D01*
X148203920Y-92692220D01*
X148193760Y-92661740D01*
X148183600Y-92631260D01*
X148173440Y-92610940D01*
X148163280Y-92580460D01*
X148163280Y-92351860D01*
X148173440Y-92362020D01*
X148183600Y-92372180D01*
X148203920Y-92372180D01*
X148224240Y-92382340D01*
X148244560Y-92392500D01*
X148264880Y-92392500D01*
X148282660Y-92400120D01*
X148323300Y-92400120D01*
X148374100Y-92202000D01*
X148302980Y-92181680D01*
X148244560Y-92161360D01*
X148193760Y-92130880D01*
X148163280Y-92090240D01*
X148163280Y-91981020D01*
X148173440Y-91960700D01*
X148183600Y-91940380D01*
X148193760Y-91920060D01*
X148203920Y-91912440D01*
X148214080Y-91892120D01*
X148234400Y-91881960D01*
X148254720Y-91871800D01*
X148272500Y-91861640D01*
X148292820Y-91861640D01*
X148313140Y-91851480D01*
X148493480Y-91851480D01*
X148513800Y-91861640D01*
X148534120Y-91871800D01*
X148554440Y-91881960D01*
X148574760Y-91892120D01*
X148592540Y-91902280D01*
X148602700Y-91912440D01*
X148623020Y-91930220D01*
X148633180Y-91940380D01*
X148643340Y-91960700D01*
X148653500Y-91991180D01*
X148663660Y-92011500D01*
X148663660Y-92062300D01*
X149054820Y-92062300D01*
X149044660Y-92001340D01*
X149034500Y-91940380D01*
X149014180Y-91881960D01*
X148983700Y-91841320D01*
X148953220Y-91790520D01*
X148922740Y-91752420D01*
X148884640Y-91721940D01*
X148833840Y-91691460D01*
X148783040Y-91660980D01*
X148734780Y-91640660D01*
X148683980Y-91630500D01*
X148623020Y-91610180D01*
X148564600Y-91600020D01*
X148513800Y-91592400D01*
X148282660Y-91592400D01*
X148234400Y-91600020D01*
X148173440Y-91600020D01*
X148122640Y-91610180D01*
X148074380Y-91630500D01*
X148023580Y-91640660D01*
X147972780Y-91660980D01*
X147934680Y-91691460D01*
X147894040Y-91721940D01*
X147853400Y-91752420D01*
X147822920Y-91790520D01*
X147802600Y-91831160D01*
X147784820Y-91881960D01*
X147774660Y-91930220D01*
X147774660Y-92801440D01*
X147764500Y-92821760D01*
X147764500Y-92910660D01*
X147754340Y-92930980D01*
X147754340Y-92951300D01*
X147744180Y-92971620D01*
X147744180Y-93002100D01*
X147734020Y-93022420D01*
X147723860Y-93030040D01*
X147723860Y-93040200D01*
X148112480Y-93040200D01*
X148112480Y-93030040D01*
X148122640Y-93022420D01*
X148122640Y-93012260D01*
X148132800Y-93002100D01*
X148132800Y-92971620D01*
X148142960Y-92961460D01*
X148142960Y-92900500D01*
X148163280Y-92930980D01*
X148193760Y-92951300D01*
X148214080Y-92971620D01*
X148244560Y-92991940D01*
X148272500Y-93002100D01*
X148302980Y-93022420D01*
X148333460Y-93030040D01*
X148363940Y-93040200D01*
X148394420Y-93050360D01*
X148424900Y-93060520D01*
X148452840Y-93060520D01*
X148483320Y-93070680D01*
X148523960Y-93070680D01*
X148554440Y-93080840D01*
X148663660Y-93080840D01*
X148714460Y-93070680D01*
X148762720Y-93070680D01*
X148803360Y-93060520D01*
X148854160Y-93040200D01*
X148894800Y-93022420D01*
X148922740Y-93002100D01*
X148963380Y-92981780D01*
X148993860Y-92951300D01*
X149014180Y-92920820D01*
X149044660Y-92880180D01*
X149062440Y-92852240D01*
X149072600Y-92801440D01*
X149092920Y-92760800D01*
X149092920Y-92710000D01*
X149103080Y-92661740D01*
X149082760Y-92552520D01*
X149054820Y-92461080D01*
X149014180Y-92392500D01*
X148943060Y-92331540D01*
X148874480Y-92290900D01*
X148793200Y-92260420D01*
X148714460Y-92240100D01*
X148623020Y-92232480D01*
X148544280Y-92440760D01*
G36*
X148623020Y-92232480D02*
X148534120Y-92222320D01*
X148442680Y-92212160D01*
X148374100Y-92202000D01*
X148323300Y-92400120D01*
X148343620Y-92410280D01*
X148363940Y-92410280D01*
X148394420Y-92420440D01*
X148432520Y-92420440D01*
X148463000Y-92430600D01*
X148503640Y-92430600D01*
X148523960Y-92440760D01*
X148544280Y-92440760D01*
X148623020Y-92232480D01*
G37*
X148623020Y-92232480D02*
X148534120Y-92222320D01*
X148442680Y-92212160D01*
X148374100Y-92202000D01*
X148323300Y-92400120D01*
X148343620Y-92410280D01*
X148363940Y-92410280D01*
X148394420Y-92420440D01*
X148432520Y-92420440D01*
X148463000Y-92430600D01*
X148503640Y-92430600D01*
X148523960Y-92440760D01*
X148544280Y-92440760D01*
X148623020Y-92232480D01*
G36*
X149303740Y-92740480D02*
X149364700Y-92852240D01*
X149453600Y-92941140D01*
X149562820Y-93022420D01*
X149684740Y-93060520D01*
X149834600Y-93080840D01*
X149893020Y-93070680D01*
X149953980Y-93060520D01*
X150012400Y-93050360D01*
X150073360Y-93022420D01*
X150124160Y-92991940D01*
X150172420Y-92961460D01*
X150213060Y-92910660D01*
X150253700Y-92862400D01*
X150263860Y-92862400D01*
X150263860Y-93880940D01*
X150304500Y-93840300D01*
X150352760Y-93792040D01*
X150403560Y-93751400D01*
X150454360Y-93710760D01*
X150502620Y-93670120D01*
X150553420Y-93621860D01*
X150594060Y-93581220D01*
X150644860Y-93540580D01*
X150644860Y-91691460D01*
X150604220Y-91681300D01*
X150553420Y-91671140D01*
X150502620Y-91671140D01*
X150464520Y-91660980D01*
X150413720Y-91650820D01*
X150373080Y-91640660D01*
X150324820Y-91630500D01*
X150274020Y-91620340D01*
X150274020Y-91800680D01*
X150233380Y-91752420D01*
X150192740Y-91711780D01*
X150144480Y-91671140D01*
X150093680Y-91640660D01*
X150042880Y-91610180D01*
X149984460Y-91600020D01*
X149923500Y-91592400D01*
X149854920Y-91592400D01*
X149702520Y-91600020D01*
X149562820Y-91650820D01*
X149453600Y-91721940D01*
X149364700Y-91821000D01*
X149293580Y-91930220D01*
X149252940Y-92062300D01*
X149222460Y-92202000D01*
X149214840Y-92351860D01*
X149603460Y-92341700D01*
X149603460Y-92250260D01*
X149613620Y-92171520D01*
X149644100Y-92090240D01*
X149674580Y-92021660D01*
X149722840Y-91960700D01*
X149783800Y-91920060D01*
X149854920Y-91892120D01*
X149943820Y-91881960D01*
X150022560Y-91892120D01*
X150103840Y-91920060D01*
X150154640Y-91960700D01*
X150202900Y-92021660D01*
X150233380Y-92090240D01*
X150263860Y-92171520D01*
X150274020Y-92250260D01*
X150274020Y-92420440D01*
X150253700Y-92501720D01*
X150233380Y-92580460D01*
X150202900Y-92651580D01*
X150154640Y-92702380D01*
X150093680Y-92750640D01*
X150022560Y-92770960D01*
X149933660Y-92781120D01*
X149854920Y-92770960D01*
X149773640Y-92750640D01*
X149712680Y-92702380D01*
X149674580Y-92651580D01*
X149644100Y-92580460D01*
X149303740Y-92740480D01*
G37*
X149303740Y-92740480D02*
X149364700Y-92852240D01*
X149453600Y-92941140D01*
X149562820Y-93022420D01*
X149684740Y-93060520D01*
X149834600Y-93080840D01*
X149893020Y-93070680D01*
X149953980Y-93060520D01*
X150012400Y-93050360D01*
X150073360Y-93022420D01*
X150124160Y-92991940D01*
X150172420Y-92961460D01*
X150213060Y-92910660D01*
X150253700Y-92862400D01*
X150263860Y-92862400D01*
X150263860Y-93880940D01*
X150304500Y-93840300D01*
X150352760Y-93792040D01*
X150403560Y-93751400D01*
X150454360Y-93710760D01*
X150502620Y-93670120D01*
X150553420Y-93621860D01*
X150594060Y-93581220D01*
X150644860Y-93540580D01*
X150644860Y-91691460D01*
X150604220Y-91681300D01*
X150553420Y-91671140D01*
X150502620Y-91671140D01*
X150464520Y-91660980D01*
X150413720Y-91650820D01*
X150373080Y-91640660D01*
X150324820Y-91630500D01*
X150274020Y-91620340D01*
X150274020Y-91800680D01*
X150233380Y-91752420D01*
X150192740Y-91711780D01*
X150144480Y-91671140D01*
X150093680Y-91640660D01*
X150042880Y-91610180D01*
X149984460Y-91600020D01*
X149923500Y-91592400D01*
X149854920Y-91592400D01*
X149702520Y-91600020D01*
X149562820Y-91650820D01*
X149453600Y-91721940D01*
X149364700Y-91821000D01*
X149293580Y-91930220D01*
X149252940Y-92062300D01*
X149222460Y-92202000D01*
X149214840Y-92351860D01*
X149603460Y-92341700D01*
X149603460Y-92250260D01*
X149613620Y-92171520D01*
X149644100Y-92090240D01*
X149674580Y-92021660D01*
X149722840Y-91960700D01*
X149783800Y-91920060D01*
X149854920Y-91892120D01*
X149943820Y-91881960D01*
X150022560Y-91892120D01*
X150103840Y-91920060D01*
X150154640Y-91960700D01*
X150202900Y-92021660D01*
X150233380Y-92090240D01*
X150263860Y-92171520D01*
X150274020Y-92250260D01*
X150274020Y-92420440D01*
X150253700Y-92501720D01*
X150233380Y-92580460D01*
X150202900Y-92651580D01*
X150154640Y-92702380D01*
X150093680Y-92750640D01*
X150022560Y-92770960D01*
X149933660Y-92781120D01*
X149854920Y-92770960D01*
X149773640Y-92750640D01*
X149712680Y-92702380D01*
X149674580Y-92651580D01*
X149644100Y-92580460D01*
X149303740Y-92740480D01*
G36*
X149644100Y-92580460D02*
X149613620Y-92501720D01*
X149603460Y-92420440D01*
X149603460Y-92341700D01*
X149214840Y-92351860D01*
X149222460Y-92491560D01*
X149252940Y-92621100D01*
X149303740Y-92740480D01*
X149644100Y-92580460D01*
G37*
X149644100Y-92580460D02*
X149613620Y-92501720D01*
X149603460Y-92420440D01*
X149603460Y-92341700D01*
X149214840Y-92351860D01*
X149222460Y-92491560D01*
X149252940Y-92621100D01*
X149303740Y-92740480D01*
X149644100Y-92580460D01*
G36*
X151744680Y-92580460D02*
X151744680Y-92641420D01*
X151724360Y-92692220D01*
X151693880Y-92730320D01*
X151653240Y-92760800D01*
X151612600Y-92791280D01*
X151554180Y-92801440D01*
X151503380Y-92811600D01*
X151442420Y-92821760D01*
X151404320Y-92811600D01*
X151363680Y-92811600D01*
X151323040Y-92801440D01*
X151282400Y-92781120D01*
X151244300Y-92750640D01*
X151213820Y-92720160D01*
X151203660Y-92682060D01*
X151193500Y-92641420D01*
X151203660Y-92600780D01*
X151223980Y-92560140D01*
X151264620Y-92532200D01*
X151312880Y-92501720D01*
X151373840Y-92481400D01*
X151452580Y-92461080D01*
X151533860Y-92440760D01*
X151632920Y-92420440D01*
X151724360Y-92400120D01*
X151803100Y-92372180D01*
X151874220Y-92341700D01*
X151942800Y-92301060D01*
X152003760Y-92260420D01*
X152044400Y-92202000D01*
X152074880Y-92130880D01*
X152082500Y-92041980D01*
X152074880Y-91920060D01*
X152034240Y-91821000D01*
X151963120Y-91742260D01*
X151894540Y-91681300D01*
X151792940Y-91630500D01*
X151693880Y-91610180D01*
X151584660Y-91592400D01*
X151353520Y-91592400D01*
X151244300Y-91610180D01*
X151142700Y-91640660D01*
X151053800Y-91681300D01*
X150972520Y-91742260D01*
X150914100Y-91821000D01*
X150863300Y-91920060D01*
X150842980Y-92041980D01*
X151213820Y-92041980D01*
X151223980Y-91991180D01*
X151244300Y-91940380D01*
X151264620Y-91912440D01*
X151292560Y-91892120D01*
X151333200Y-91871800D01*
X151384000Y-91851480D01*
X151554180Y-91851480D01*
X151584660Y-91861640D01*
X151622760Y-91871800D01*
X151653240Y-91881960D01*
X151673560Y-91912440D01*
X151693880Y-91940380D01*
X151693880Y-91981020D01*
X151683720Y-92021660D01*
X151653240Y-92062300D01*
X151612600Y-92090240D01*
X151554180Y-92120720D01*
X151493220Y-92141040D01*
X151414480Y-92151200D01*
X151333200Y-92171520D01*
X151254460Y-92191840D01*
X151173180Y-92212160D01*
X151084280Y-92232480D01*
X151013160Y-92270580D01*
X150944580Y-92311220D01*
X150883620Y-92362020D01*
X150842980Y-92420440D01*
X150812500Y-92491560D01*
X150804880Y-92580460D01*
X150822660Y-92710000D01*
X150863300Y-92821760D01*
X150924260Y-92900500D01*
X151003000Y-92971620D01*
X151104600Y-93022420D01*
X151213820Y-93050360D01*
X151333200Y-93070680D01*
X151452580Y-93080840D01*
X151574500Y-93070680D01*
X151693880Y-93050360D01*
X151803100Y-93022420D01*
X151904700Y-92971620D01*
X151983440Y-92900500D01*
X152054560Y-92811600D01*
X152092660Y-92710000D01*
X152112980Y-92580460D01*
X151792940Y-92580460D01*
X151744680Y-92580460D01*
G37*
X151744680Y-92580460D02*
X151744680Y-92641420D01*
X151724360Y-92692220D01*
X151693880Y-92730320D01*
X151653240Y-92760800D01*
X151612600Y-92791280D01*
X151554180Y-92801440D01*
X151503380Y-92811600D01*
X151442420Y-92821760D01*
X151404320Y-92811600D01*
X151363680Y-92811600D01*
X151323040Y-92801440D01*
X151282400Y-92781120D01*
X151244300Y-92750640D01*
X151213820Y-92720160D01*
X151203660Y-92682060D01*
X151193500Y-92641420D01*
X151203660Y-92600780D01*
X151223980Y-92560140D01*
X151264620Y-92532200D01*
X151312880Y-92501720D01*
X151373840Y-92481400D01*
X151452580Y-92461080D01*
X151533860Y-92440760D01*
X151632920Y-92420440D01*
X151724360Y-92400120D01*
X151803100Y-92372180D01*
X151874220Y-92341700D01*
X151942800Y-92301060D01*
X152003760Y-92260420D01*
X152044400Y-92202000D01*
X152074880Y-92130880D01*
X152082500Y-92041980D01*
X152074880Y-91920060D01*
X152034240Y-91821000D01*
X151963120Y-91742260D01*
X151894540Y-91681300D01*
X151792940Y-91630500D01*
X151693880Y-91610180D01*
X151584660Y-91592400D01*
X151353520Y-91592400D01*
X151244300Y-91610180D01*
X151142700Y-91640660D01*
X151053800Y-91681300D01*
X150972520Y-91742260D01*
X150914100Y-91821000D01*
X150863300Y-91920060D01*
X150842980Y-92041980D01*
X151213820Y-92041980D01*
X151223980Y-91991180D01*
X151244300Y-91940380D01*
X151264620Y-91912440D01*
X151292560Y-91892120D01*
X151333200Y-91871800D01*
X151384000Y-91851480D01*
X151554180Y-91851480D01*
X151584660Y-91861640D01*
X151622760Y-91871800D01*
X151653240Y-91881960D01*
X151673560Y-91912440D01*
X151693880Y-91940380D01*
X151693880Y-91981020D01*
X151683720Y-92021660D01*
X151653240Y-92062300D01*
X151612600Y-92090240D01*
X151554180Y-92120720D01*
X151493220Y-92141040D01*
X151414480Y-92151200D01*
X151333200Y-92171520D01*
X151254460Y-92191840D01*
X151173180Y-92212160D01*
X151084280Y-92232480D01*
X151013160Y-92270580D01*
X150944580Y-92311220D01*
X150883620Y-92362020D01*
X150842980Y-92420440D01*
X150812500Y-92491560D01*
X150804880Y-92580460D01*
X150822660Y-92710000D01*
X150863300Y-92821760D01*
X150924260Y-92900500D01*
X151003000Y-92971620D01*
X151104600Y-93022420D01*
X151213820Y-93050360D01*
X151333200Y-93070680D01*
X151452580Y-93080840D01*
X151574500Y-93070680D01*
X151693880Y-93050360D01*
X151803100Y-93022420D01*
X151904700Y-92971620D01*
X151983440Y-92900500D01*
X152054560Y-92811600D01*
X152092660Y-92710000D01*
X152112980Y-92580460D01*
X151792940Y-92580460D01*
X151744680Y-92580460D01*
M02*
