G04 #@! TF.GenerationSoftware,KiCad,Pcbnew,no-vcs-found-5013ea2~58~ubuntu16.04.1*
G04 #@! TF.CreationDate,2017-05-24T10:44:45-06:00*
G04 #@! TF.ProjectId,HiBeam_8-pack_v02,48694265616D5F382D7061636B5F7630,rev?*
G04 #@! TF.FileFunction,Legend,Top*
G04 #@! TF.FilePolarity,Positive*
%FSLAX46Y46*%
G04 Gerber Fmt 4.6, Leading zero omitted, Abs format (unit mm)*
G04 Created by KiCad (PCBNEW no-vcs-found-5013ea2~58~ubuntu16.04.1) date Wed May 24 10:44:45 2017*
%MOMM*%
%LPD*%
G01*
G04 APERTURE LIST*
%ADD10C,0.100000*%
%ADD11C,0.200000*%
%ADD12C,0.177800*%
%ADD13C,0.203200*%
%ADD14C,0.150000*%
%ADD15C,0.066040*%
%ADD16C,0.010000*%
G04 APERTURE END LIST*
D10*
D11*
X146309904Y-110744000D02*
G75*
G03X146309904Y-110744000I-767904J0D01*
G01*
X142870755Y-85623400D02*
G75*
G03X142870755Y-85623400I-757755J0D01*
G01*
X154078514Y-86614000D02*
G75*
G03X154078514Y-86614000I-764114J0D01*
G01*
X156845423Y-106781600D02*
G75*
G03X156845423Y-106781600I-762423J0D01*
G01*
X160338683Y-96088200D02*
G75*
G03X160338683Y-96088200I-750483J0D01*
G01*
X136568996Y-104927400D02*
G75*
G03X136568996Y-104927400I-755196J0D01*
G01*
X144760504Y-94208600D02*
G75*
G03X144760504Y-94208600I-767904J0D01*
G01*
X135072955Y-93726000D02*
G75*
G03X135072955Y-93726000I-757755J0D01*
G01*
D12*
X145595190Y-110839359D02*
X145648157Y-110907804D01*
X145666248Y-110959465D01*
X145667555Y-111046001D01*
X145650770Y-111080877D01*
X145582325Y-111133845D01*
X145530664Y-111151936D01*
X145444128Y-111153243D01*
X145304624Y-111086104D01*
X145251657Y-111017659D01*
X145233565Y-110965998D01*
X145232259Y-110879461D01*
X145249043Y-110844585D01*
X145317489Y-110791618D01*
X145369149Y-110773527D01*
X145455686Y-110772220D01*
X145595190Y-110839359D01*
X145681726Y-110838052D01*
X145733387Y-110819961D01*
X145801832Y-110766994D01*
X145868971Y-110627490D01*
X145867664Y-110540953D01*
X145849573Y-110489292D01*
X145796606Y-110420847D01*
X145657102Y-110353708D01*
X145570565Y-110355015D01*
X145518905Y-110373106D01*
X145450459Y-110426074D01*
X145383321Y-110565578D01*
X145384627Y-110652114D01*
X145402719Y-110703775D01*
X145455686Y-110772220D01*
X156469355Y-106988980D02*
X155981091Y-107223966D01*
X155942497Y-106340508D01*
X159962543Y-96337783D02*
X159996843Y-96186812D01*
X159976250Y-96102751D01*
X159947082Y-96056433D01*
X159851003Y-95955222D01*
X159708607Y-95883179D01*
X159406663Y-95814580D01*
X159322602Y-95835173D01*
X159276285Y-95864340D01*
X159221392Y-95931251D01*
X159187092Y-96082223D01*
X159207685Y-96166284D01*
X159236853Y-96212602D01*
X159303764Y-96267495D01*
X159492478Y-96310370D01*
X159576539Y-96289777D01*
X159622857Y-96260609D01*
X159677750Y-96193698D01*
X159712050Y-96042726D01*
X159691457Y-95958665D01*
X159662289Y-95912347D01*
X159595378Y-95857454D01*
X153732414Y-86513769D02*
X153491471Y-86210862D01*
X153164470Y-86421514D01*
X153218855Y-86427710D01*
X153297334Y-86464198D01*
X153417805Y-86615651D01*
X153435703Y-86700326D01*
X153429507Y-86754711D01*
X153393020Y-86833191D01*
X153241567Y-86953662D01*
X153156891Y-86971560D01*
X153102506Y-86965364D01*
X153024027Y-86928876D01*
X152903555Y-86777423D01*
X152885657Y-86692748D01*
X152891854Y-86638363D01*
X142242419Y-85474628D02*
X142242419Y-86016495D01*
X142048895Y-85164990D02*
X141855371Y-85745561D01*
X142358533Y-85745561D01*
X133874397Y-93660950D02*
X134187623Y-93267171D01*
X134261288Y-93671960D01*
X134333571Y-93581088D01*
X134412050Y-93544601D01*
X134466435Y-93538405D01*
X134551111Y-93556303D01*
X134702564Y-93676774D01*
X134739051Y-93755253D01*
X134745247Y-93809638D01*
X134727349Y-93894314D01*
X134582784Y-94076058D01*
X134504304Y-94112545D01*
X134449920Y-94118741D01*
X135532092Y-105209919D02*
X135485774Y-105180751D01*
X135430881Y-105113841D01*
X135388006Y-104925126D01*
X135408599Y-104841065D01*
X135437767Y-104794747D01*
X135504678Y-104739854D01*
X135580164Y-104722704D01*
X135701967Y-104734722D01*
X136257782Y-105084738D01*
X136146307Y-104594080D01*
X144224828Y-94576295D02*
X143760371Y-94576295D01*
X143992600Y-94576295D02*
X143992600Y-93763495D01*
X143915190Y-93879609D01*
X143837780Y-93957019D01*
X143760371Y-93995723D01*
D13*
X140919055Y-104028960D02*
X145424440Y-106197255D01*
X138750760Y-108534345D02*
X143256145Y-110702640D01*
D14*
X143169059Y-111158702D02*
G75*
G03X143169059Y-111158702I-228953J0D01*
G01*
X143029909Y-111158702D02*
G75*
G03X143029909Y-111158702I-89803J0D01*
G01*
D13*
X147945560Y-106171855D02*
X152450945Y-104003560D01*
X150113855Y-110677240D02*
X154619240Y-108508945D01*
D14*
X155007445Y-109040463D02*
G75*
G03X155007445Y-109040463I-228953J0D01*
G01*
X154868294Y-109040463D02*
G75*
G03X154868294Y-109040463I-89802J0D01*
G01*
D13*
X154565166Y-94673407D02*
X151452593Y-90760366D01*
X158478207Y-91560834D02*
X155365634Y-87647793D01*
D14*
X156077614Y-87374742D02*
G75*
G03X156077614Y-87374742I-228952J0D01*
G01*
X155938464Y-87374742D02*
G75*
G03X155938464Y-87374742I-89802J0D01*
G01*
D13*
X149185000Y-89672800D02*
X144185000Y-89672800D01*
X149185000Y-84672800D02*
X144185000Y-84672800D01*
D14*
X144500953Y-84124800D02*
G75*
G03X144500953Y-84124800I-228953J0D01*
G01*
X144361803Y-84124800D02*
G75*
G03X144361803Y-84124800I-89803J0D01*
G01*
D13*
X141892007Y-90760366D02*
X138779434Y-94673407D01*
X137978966Y-87647793D02*
X134866393Y-91560834D01*
D14*
X134720636Y-91151609D02*
G75*
G03X134720636Y-91151609I-228953J0D01*
G01*
X134581486Y-91151609D02*
G75*
G03X134581486Y-91151609I-89803J0D01*
G01*
D13*
X138205802Y-97160455D02*
X139313545Y-102036202D01*
X133330055Y-98268198D02*
X134437798Y-103143945D01*
D14*
X134113093Y-103180515D02*
G75*
G03X134113093Y-103180515I-228952J0D01*
G01*
X133973944Y-103180515D02*
G75*
G03X133973944Y-103180515I-89803J0D01*
G01*
D13*
X144185000Y-95290000D02*
X149185000Y-95290000D01*
X144185000Y-100290000D02*
X149185000Y-100290000D01*
D14*
X149326953Y-100838000D02*
G75*
G03X149326953Y-100838000I-228953J0D01*
G01*
X149187803Y-100838000D02*
G75*
G03X149187803Y-100838000I-89803J0D01*
G01*
D13*
X154031055Y-102036202D02*
X155138798Y-97160455D01*
X158906802Y-103143945D02*
X160014545Y-98268198D01*
D14*
X160758604Y-98474444D02*
G75*
G03X160758604Y-98474444I-228952J0D01*
G01*
X160619454Y-98474444D02*
G75*
G03X160619454Y-98474444I-89802J0D01*
G01*
D15*
X146486880Y-94533720D02*
X146486880Y-93934280D01*
X146486880Y-93934280D02*
X146883120Y-93934280D01*
X146883120Y-94533720D02*
X146883120Y-93934280D01*
X146486880Y-94533720D02*
X146883120Y-94533720D01*
X139490835Y-99212606D02*
X140075379Y-99079801D01*
X140075379Y-99079801D02*
X140163165Y-99466194D01*
X139578621Y-99598999D02*
X140163165Y-99466194D01*
X139490835Y-99212606D02*
X139578621Y-99598999D01*
X141087369Y-93079570D02*
X141556496Y-93452730D01*
X141556496Y-93452730D02*
X141309831Y-93762830D01*
X140840704Y-93389670D02*
X141309831Y-93762830D01*
X141087369Y-93079570D02*
X140840704Y-93389670D01*
X146883120Y-90479880D02*
X146883120Y-91079320D01*
X146883120Y-91079320D02*
X146486880Y-91079320D01*
X146486880Y-90479880D02*
X146486880Y-91079320D01*
X146883120Y-90479880D02*
X146486880Y-90479880D01*
X152529296Y-93389670D02*
X152060169Y-93762830D01*
X152060169Y-93762830D02*
X151813504Y-93452730D01*
X152282631Y-93079570D02*
X151813504Y-93452730D01*
X152529296Y-93389670D02*
X152282631Y-93079570D01*
X153765979Y-99598999D02*
X153181435Y-99466194D01*
X153181435Y-99466194D02*
X153269221Y-99079801D01*
X153853765Y-99212606D02*
X153269221Y-99079801D01*
X153765979Y-99598999D02*
X153853765Y-99212606D01*
X150520013Y-102567455D02*
X151060154Y-102307502D01*
X151060154Y-102307502D02*
X151231987Y-102664545D01*
X150691846Y-102924498D02*
X151231987Y-102664545D01*
X150520013Y-102567455D02*
X150691846Y-102924498D01*
X142678154Y-102924498D02*
X142138013Y-102664545D01*
X142138013Y-102664545D02*
X142309846Y-102307502D01*
X142849987Y-102567455D02*
X142309846Y-102307502D01*
X142678154Y-102924498D02*
X142849987Y-102567455D01*
D16*
G36*
X152626060Y-96774000D02*
X152626060Y-96865440D01*
X152615900Y-96893380D01*
X152605740Y-96913700D01*
X152575260Y-96944180D01*
X152544780Y-96954340D01*
X152514300Y-96954340D01*
X152435560Y-96934020D01*
X152394920Y-96913700D01*
X152364440Y-96893380D01*
X152326340Y-96865440D01*
X152265380Y-96804480D01*
X152224740Y-96743520D01*
X152214580Y-96705420D01*
X152214580Y-96644460D01*
X152224740Y-96613980D01*
X152234900Y-96593660D01*
X152255220Y-96565720D01*
X152295860Y-96535240D01*
X152336500Y-96514920D01*
X152384760Y-96504760D01*
X152425400Y-96494600D01*
X152486360Y-96494600D01*
X152506680Y-96504760D01*
X152514300Y-96504760D01*
X152506680Y-96494600D01*
X152466040Y-96464120D01*
X152326340Y-96395540D01*
X152234900Y-96375220D01*
X152135840Y-96375220D01*
X152026620Y-96395540D01*
X151914860Y-96453960D01*
X151825960Y-96525080D01*
X151775160Y-96603820D01*
X151744680Y-96695260D01*
X151744680Y-96774000D01*
X151765000Y-96865440D01*
X151815800Y-96954340D01*
X151884380Y-97035620D01*
X151965660Y-97124520D01*
X152036780Y-97195640D01*
X152064720Y-97274380D01*
X152064720Y-97345500D01*
X152044400Y-97403920D01*
X152006300Y-97454720D01*
X151945340Y-97495360D01*
X151866600Y-97515680D01*
X151785320Y-97515680D01*
X151734520Y-97505520D01*
X151686260Y-97485200D01*
X151625300Y-97424240D01*
X151604980Y-97393760D01*
X151594820Y-97363280D01*
X151594820Y-97325180D01*
X151604980Y-97294700D01*
X151665940Y-97233740D01*
X151696420Y-97223580D01*
X151734520Y-97203260D01*
X151744680Y-97195640D01*
X151706580Y-97175320D01*
X151584660Y-97175320D01*
X151526240Y-97185480D01*
X151475440Y-97195640D01*
X151424640Y-97213420D01*
X151386540Y-97243900D01*
X151335740Y-97284540D01*
X151274780Y-97383600D01*
X151254460Y-97454720D01*
X151244300Y-97533460D01*
X151244300Y-98905060D01*
X151295100Y-98854260D01*
X151325580Y-98803460D01*
X151376380Y-98755200D01*
X151424640Y-98694240D01*
X151546560Y-98574860D01*
X151665940Y-98435160D01*
X151765000Y-98333560D01*
X151866600Y-98275140D01*
X151925020Y-98264980D01*
X152115520Y-98264980D01*
X152234900Y-98244660D01*
X152346660Y-98214180D01*
X152445720Y-98173540D01*
X152544780Y-98115120D01*
X152626060Y-98044000D01*
X152704800Y-97965260D01*
X152775920Y-97873820D01*
X152874980Y-97693480D01*
X152925780Y-97505520D01*
X152935940Y-97335340D01*
X152905460Y-97175320D01*
X152854660Y-97025460D01*
X152786080Y-96913700D01*
X152704800Y-96824800D01*
X152626060Y-96774000D01*
G37*
X152626060Y-96774000D02*
X152626060Y-96865440D01*
X152615900Y-96893380D01*
X152605740Y-96913700D01*
X152575260Y-96944180D01*
X152544780Y-96954340D01*
X152514300Y-96954340D01*
X152435560Y-96934020D01*
X152394920Y-96913700D01*
X152364440Y-96893380D01*
X152326340Y-96865440D01*
X152265380Y-96804480D01*
X152224740Y-96743520D01*
X152214580Y-96705420D01*
X152214580Y-96644460D01*
X152224740Y-96613980D01*
X152234900Y-96593660D01*
X152255220Y-96565720D01*
X152295860Y-96535240D01*
X152336500Y-96514920D01*
X152384760Y-96504760D01*
X152425400Y-96494600D01*
X152486360Y-96494600D01*
X152506680Y-96504760D01*
X152514300Y-96504760D01*
X152506680Y-96494600D01*
X152466040Y-96464120D01*
X152326340Y-96395540D01*
X152234900Y-96375220D01*
X152135840Y-96375220D01*
X152026620Y-96395540D01*
X151914860Y-96453960D01*
X151825960Y-96525080D01*
X151775160Y-96603820D01*
X151744680Y-96695260D01*
X151744680Y-96774000D01*
X151765000Y-96865440D01*
X151815800Y-96954340D01*
X151884380Y-97035620D01*
X151965660Y-97124520D01*
X152036780Y-97195640D01*
X152064720Y-97274380D01*
X152064720Y-97345500D01*
X152044400Y-97403920D01*
X152006300Y-97454720D01*
X151945340Y-97495360D01*
X151866600Y-97515680D01*
X151785320Y-97515680D01*
X151734520Y-97505520D01*
X151686260Y-97485200D01*
X151625300Y-97424240D01*
X151604980Y-97393760D01*
X151594820Y-97363280D01*
X151594820Y-97325180D01*
X151604980Y-97294700D01*
X151665940Y-97233740D01*
X151696420Y-97223580D01*
X151734520Y-97203260D01*
X151744680Y-97195640D01*
X151706580Y-97175320D01*
X151584660Y-97175320D01*
X151526240Y-97185480D01*
X151475440Y-97195640D01*
X151424640Y-97213420D01*
X151386540Y-97243900D01*
X151335740Y-97284540D01*
X151274780Y-97383600D01*
X151254460Y-97454720D01*
X151244300Y-97533460D01*
X151244300Y-98905060D01*
X151295100Y-98854260D01*
X151325580Y-98803460D01*
X151376380Y-98755200D01*
X151424640Y-98694240D01*
X151546560Y-98574860D01*
X151665940Y-98435160D01*
X151765000Y-98333560D01*
X151866600Y-98275140D01*
X151925020Y-98264980D01*
X152115520Y-98264980D01*
X152234900Y-98244660D01*
X152346660Y-98214180D01*
X152445720Y-98173540D01*
X152544780Y-98115120D01*
X152626060Y-98044000D01*
X152704800Y-97965260D01*
X152775920Y-97873820D01*
X152874980Y-97693480D01*
X152925780Y-97505520D01*
X152935940Y-97335340D01*
X152905460Y-97175320D01*
X152854660Y-97025460D01*
X152786080Y-96913700D01*
X152704800Y-96824800D01*
X152626060Y-96774000D01*
G36*
X142814040Y-97960180D02*
X142814040Y-97642680D01*
X142455900Y-97584260D01*
X142455900Y-97543620D01*
X142445740Y-97533460D01*
X142445740Y-97513140D01*
X142435580Y-97502980D01*
X142425420Y-97482660D01*
X142425420Y-97464880D01*
X142415260Y-97454720D01*
X142415260Y-97434400D01*
X142405100Y-97424240D01*
X142394940Y-97403920D01*
X142384780Y-97393760D01*
X142384780Y-97373440D01*
X142374620Y-97363280D01*
X142364460Y-97342960D01*
X142354300Y-97332800D01*
X142565120Y-97043240D01*
X142333980Y-96824800D01*
X142044420Y-97022920D01*
X142034260Y-97012760D01*
X142013940Y-97005140D01*
X142003780Y-97005140D01*
X141986000Y-96994980D01*
X141975840Y-96984820D01*
X141955520Y-96974660D01*
X141945360Y-96974660D01*
X141925040Y-96964500D01*
X141914880Y-96954340D01*
X141894560Y-96954340D01*
X141874240Y-96944180D01*
X141864080Y-96944180D01*
X141843760Y-96934020D01*
X141836140Y-96934020D01*
X141815820Y-96923860D01*
X141795500Y-96923860D01*
X141734540Y-96573340D01*
X141417040Y-96573340D01*
X141358620Y-96923860D01*
X141348460Y-96923860D01*
X141328140Y-96934020D01*
X141307820Y-96934020D01*
X141297660Y-96944180D01*
X141277340Y-96944180D01*
X141257020Y-96954340D01*
X141246860Y-96954340D01*
X141226540Y-96964500D01*
X141216380Y-96974660D01*
X141198600Y-96974660D01*
X141188440Y-96984820D01*
X141168120Y-96994980D01*
X141157960Y-97005140D01*
X141137640Y-97005140D01*
X141127480Y-97012760D01*
X141107160Y-97022920D01*
X140817600Y-96824800D01*
X140596620Y-97043240D01*
X140797280Y-97332800D01*
X140787120Y-97342960D01*
X140787120Y-97363280D01*
X140776960Y-97373440D01*
X140766800Y-97393760D01*
X140756640Y-97403920D01*
X140756640Y-97424240D01*
X140746480Y-97434400D01*
X140736320Y-97454720D01*
X140736320Y-97464880D01*
X140718540Y-97502980D01*
X140718540Y-97513140D01*
X140708380Y-97533460D01*
X140708380Y-97543620D01*
X140698220Y-97563940D01*
X140698220Y-97584260D01*
X140347700Y-97642680D01*
X140347700Y-97960180D01*
X140698220Y-98021140D01*
X140698220Y-98031300D01*
X140708380Y-98051620D01*
X140708380Y-98071940D01*
X140718540Y-98082100D01*
X140718540Y-98102420D01*
X140728700Y-98112580D01*
X140736320Y-98130360D01*
X140736320Y-98150680D01*
X140746480Y-98160840D01*
X140746480Y-98181160D01*
X140756640Y-98191320D01*
X140766800Y-98211640D01*
X140776960Y-98221800D01*
X140787120Y-98242120D01*
X140787120Y-98252280D01*
X140797280Y-98272600D01*
X140596620Y-98552000D01*
X140817600Y-98780600D01*
X141107160Y-98582480D01*
X141117320Y-98582480D01*
X141127480Y-98590100D01*
X141137640Y-98590100D01*
X141147800Y-98600260D01*
X141157960Y-98600260D01*
X141168120Y-98610420D01*
X141178280Y-98610420D01*
X141188440Y-98620580D01*
X141198600Y-98620580D01*
X141206220Y-98630740D01*
X141216380Y-98630740D01*
X141226540Y-98640900D01*
X141246860Y-98640900D01*
X141257020Y-98651060D01*
X141457680Y-98112580D01*
X141427200Y-98102420D01*
X141386560Y-98082100D01*
X141366240Y-98061780D01*
X141348460Y-98051620D01*
X141328140Y-98031300D01*
X141317980Y-98010980D01*
X141297660Y-97990660D01*
X141277340Y-97952560D01*
X141267180Y-97922080D01*
X141246860Y-97881440D01*
X141246860Y-97850960D01*
X141236700Y-97820480D01*
X141236700Y-97764600D01*
X141277340Y-97642680D01*
X141317980Y-97584260D01*
X141338300Y-97563940D01*
X141366240Y-97543620D01*
X141386560Y-97523300D01*
X141417040Y-97502980D01*
X141447520Y-97492820D01*
X141478000Y-97475040D01*
X141508480Y-97475040D01*
X141546580Y-97464880D01*
X141615160Y-97464880D01*
X141645640Y-97475040D01*
X141676120Y-97475040D01*
X141704060Y-97492820D01*
X141734540Y-97502980D01*
X141795500Y-97543620D01*
X141836140Y-97584260D01*
X141874240Y-97642680D01*
X141884400Y-97673160D01*
X141904720Y-97703640D01*
X141904720Y-97734120D01*
X141914880Y-97764600D01*
X141914880Y-97850960D01*
X141904720Y-97881440D01*
X141904720Y-97901760D01*
X141894560Y-97922080D01*
X141884400Y-97952560D01*
X141874240Y-97970340D01*
X141853920Y-97990660D01*
X141843760Y-98010980D01*
X141805660Y-98051620D01*
X141785340Y-98061780D01*
X141765020Y-98082100D01*
X141704060Y-98112580D01*
X141904720Y-98651060D01*
X141904720Y-98640900D01*
X141925040Y-98640900D01*
X141935200Y-98630740D01*
X141945360Y-98630740D01*
X141955520Y-98620580D01*
X141965680Y-98620580D01*
X141975840Y-98610420D01*
X141996160Y-98610420D01*
X142003780Y-98600260D01*
X142013940Y-98600260D01*
X142034260Y-98582480D01*
X142044420Y-98582480D01*
X142333980Y-98780600D01*
X142565120Y-98552000D01*
X142354300Y-98272600D01*
X142364460Y-98252280D01*
X142374620Y-98242120D01*
X142384780Y-98221800D01*
X142384780Y-98211640D01*
X142394940Y-98191320D01*
X142405100Y-98181160D01*
X142415260Y-98160840D01*
X142415260Y-98150680D01*
X142435580Y-98112580D01*
X142435580Y-98102420D01*
X142445740Y-98082100D01*
X142445740Y-98071940D01*
X142455900Y-98051620D01*
X142455900Y-98031300D01*
X142466060Y-98021140D01*
X142814040Y-97960180D01*
G37*
X142814040Y-97960180D02*
X142814040Y-97642680D01*
X142455900Y-97584260D01*
X142455900Y-97543620D01*
X142445740Y-97533460D01*
X142445740Y-97513140D01*
X142435580Y-97502980D01*
X142425420Y-97482660D01*
X142425420Y-97464880D01*
X142415260Y-97454720D01*
X142415260Y-97434400D01*
X142405100Y-97424240D01*
X142394940Y-97403920D01*
X142384780Y-97393760D01*
X142384780Y-97373440D01*
X142374620Y-97363280D01*
X142364460Y-97342960D01*
X142354300Y-97332800D01*
X142565120Y-97043240D01*
X142333980Y-96824800D01*
X142044420Y-97022920D01*
X142034260Y-97012760D01*
X142013940Y-97005140D01*
X142003780Y-97005140D01*
X141986000Y-96994980D01*
X141975840Y-96984820D01*
X141955520Y-96974660D01*
X141945360Y-96974660D01*
X141925040Y-96964500D01*
X141914880Y-96954340D01*
X141894560Y-96954340D01*
X141874240Y-96944180D01*
X141864080Y-96944180D01*
X141843760Y-96934020D01*
X141836140Y-96934020D01*
X141815820Y-96923860D01*
X141795500Y-96923860D01*
X141734540Y-96573340D01*
X141417040Y-96573340D01*
X141358620Y-96923860D01*
X141348460Y-96923860D01*
X141328140Y-96934020D01*
X141307820Y-96934020D01*
X141297660Y-96944180D01*
X141277340Y-96944180D01*
X141257020Y-96954340D01*
X141246860Y-96954340D01*
X141226540Y-96964500D01*
X141216380Y-96974660D01*
X141198600Y-96974660D01*
X141188440Y-96984820D01*
X141168120Y-96994980D01*
X141157960Y-97005140D01*
X141137640Y-97005140D01*
X141127480Y-97012760D01*
X141107160Y-97022920D01*
X140817600Y-96824800D01*
X140596620Y-97043240D01*
X140797280Y-97332800D01*
X140787120Y-97342960D01*
X140787120Y-97363280D01*
X140776960Y-97373440D01*
X140766800Y-97393760D01*
X140756640Y-97403920D01*
X140756640Y-97424240D01*
X140746480Y-97434400D01*
X140736320Y-97454720D01*
X140736320Y-97464880D01*
X140718540Y-97502980D01*
X140718540Y-97513140D01*
X140708380Y-97533460D01*
X140708380Y-97543620D01*
X140698220Y-97563940D01*
X140698220Y-97584260D01*
X140347700Y-97642680D01*
X140347700Y-97960180D01*
X140698220Y-98021140D01*
X140698220Y-98031300D01*
X140708380Y-98051620D01*
X140708380Y-98071940D01*
X140718540Y-98082100D01*
X140718540Y-98102420D01*
X140728700Y-98112580D01*
X140736320Y-98130360D01*
X140736320Y-98150680D01*
X140746480Y-98160840D01*
X140746480Y-98181160D01*
X140756640Y-98191320D01*
X140766800Y-98211640D01*
X140776960Y-98221800D01*
X140787120Y-98242120D01*
X140787120Y-98252280D01*
X140797280Y-98272600D01*
X140596620Y-98552000D01*
X140817600Y-98780600D01*
X141107160Y-98582480D01*
X141117320Y-98582480D01*
X141127480Y-98590100D01*
X141137640Y-98590100D01*
X141147800Y-98600260D01*
X141157960Y-98600260D01*
X141168120Y-98610420D01*
X141178280Y-98610420D01*
X141188440Y-98620580D01*
X141198600Y-98620580D01*
X141206220Y-98630740D01*
X141216380Y-98630740D01*
X141226540Y-98640900D01*
X141246860Y-98640900D01*
X141257020Y-98651060D01*
X141457680Y-98112580D01*
X141427200Y-98102420D01*
X141386560Y-98082100D01*
X141366240Y-98061780D01*
X141348460Y-98051620D01*
X141328140Y-98031300D01*
X141317980Y-98010980D01*
X141297660Y-97990660D01*
X141277340Y-97952560D01*
X141267180Y-97922080D01*
X141246860Y-97881440D01*
X141246860Y-97850960D01*
X141236700Y-97820480D01*
X141236700Y-97764600D01*
X141277340Y-97642680D01*
X141317980Y-97584260D01*
X141338300Y-97563940D01*
X141366240Y-97543620D01*
X141386560Y-97523300D01*
X141417040Y-97502980D01*
X141447520Y-97492820D01*
X141478000Y-97475040D01*
X141508480Y-97475040D01*
X141546580Y-97464880D01*
X141615160Y-97464880D01*
X141645640Y-97475040D01*
X141676120Y-97475040D01*
X141704060Y-97492820D01*
X141734540Y-97502980D01*
X141795500Y-97543620D01*
X141836140Y-97584260D01*
X141874240Y-97642680D01*
X141884400Y-97673160D01*
X141904720Y-97703640D01*
X141904720Y-97734120D01*
X141914880Y-97764600D01*
X141914880Y-97850960D01*
X141904720Y-97881440D01*
X141904720Y-97901760D01*
X141894560Y-97922080D01*
X141884400Y-97952560D01*
X141874240Y-97970340D01*
X141853920Y-97990660D01*
X141843760Y-98010980D01*
X141805660Y-98051620D01*
X141785340Y-98061780D01*
X141765020Y-98082100D01*
X141704060Y-98112580D01*
X141904720Y-98651060D01*
X141904720Y-98640900D01*
X141925040Y-98640900D01*
X141935200Y-98630740D01*
X141945360Y-98630740D01*
X141955520Y-98620580D01*
X141965680Y-98620580D01*
X141975840Y-98610420D01*
X141996160Y-98610420D01*
X142003780Y-98600260D01*
X142013940Y-98600260D01*
X142034260Y-98582480D01*
X142044420Y-98582480D01*
X142333980Y-98780600D01*
X142565120Y-98552000D01*
X142354300Y-98272600D01*
X142364460Y-98252280D01*
X142374620Y-98242120D01*
X142384780Y-98221800D01*
X142384780Y-98211640D01*
X142394940Y-98191320D01*
X142405100Y-98181160D01*
X142415260Y-98160840D01*
X142415260Y-98150680D01*
X142435580Y-98112580D01*
X142435580Y-98102420D01*
X142445740Y-98082100D01*
X142445740Y-98071940D01*
X142455900Y-98051620D01*
X142455900Y-98031300D01*
X142466060Y-98021140D01*
X142814040Y-97960180D01*
M02*
