M48
;DRILL file {KiCad no-vcs-found-5013ea2~58~ubuntu16.04.1} date Wed May 24 10:45:03 2017
;FORMAT={-:-/ absolute / inch / decimal}
FMAT,2
INCH,TZ
T1C0.016
T2C0.115
%
G90
G05
M72
T1
X5.286Y-3.941
X5.403Y-3.771
X5.424Y-4.196
X5.436Y-3.924
X5.447Y-3.588
X5.496Y-3.65
X5.537Y-4.274
X5.593Y-4.227
X5.646Y-4.167
X5.754Y-3.508
X5.775Y-3.432
X5.938Y-3.782
X5.943Y-4.144
X5.956Y-4.226
X6.027Y-3.619
X6.103Y-3.588
X6.113Y-3.899
X6.119Y-4.105
X6.123Y-4.146
X6.182Y-3.943
T2
X5.775Y-4.06
T0
M30
